<?xml version="1.0" standalone="no"?>
<!DOCTYPE svg PUBLIC "-//W3C//DTD SVG 20010904//EN"
 "http://www.w3.org/TR/2001/REC-SVG-20010904/DTD/svg10.dtd">
<svg version="1.0" xmlns="http://www.w3.org/2000/svg"
 width="298.000000pt" height="258.000000pt" viewBox="0 0 298.000000 258.000000"
 preserveAspectRatio="xMidYMid meet">

<g transform="translate(0.000000,258.000000) scale(0.100000,-0.100000)"
fill="#000000" stroke="none">
<path d="M1075 2499 c-33 -41 -117 -213 -150 -308 -14 -41 -25 -76 -25 -78 0
-2 38 -3 85 -3 84 0 85 0 85 -25 0 -25 0 -25 -94 -25 l-94 0 -16 -69 c-22 -97
-36 -196 -36 -263 l0 -57 -52 16 c-29 8 -75 26 -101 40 -27 13 -51 23 -53 20
-8 -7 27 -123 56 -184 15 -34 47 -89 70 -123 l42 -62 -80 3 c-96 5 -96 3 2
-89 119 -111 252 -190 433 -256 217 -80 378 -93 587 -46 64 14 127 20 218 20
l128 0 0 25 c0 23 -3 25 -52 25 -49 1 -51 2 -34 15 18 14 11 15 -67 15 -85 0
-87 1 -87 24 0 23 1 23 138 28 137 4 138 4 187 38 78 53 211 184 191 188 -9 2
-14 7 -12 11 3 4 -25 5 -61 3 -54 -4 -64 -2 -57 9 5 8 26 40 47 72 l38 57 124
0 125 0 0 25 0 25 -113 0 -114 0 23 78 c18 63 20 78 8 80 -8 2 -12 8 -9 13 9
14 -2 11 -53 -15 -52 -26 -153 -59 -160 -51 -3 2 3 7 12 11 18 7 21 36 6 65
-10 17 -22 19 -120 19 l-110 0 0 25 0 25 115 0 116 0 -6 38 c-13 74 -48 218
-66 271 -23 65 -22 61 -4 61 9 0 15 9 15 25 0 20 -5 25 -25 25 -21 0 -29 9
-51 57 -13 32 -30 61 -37 65 -7 4 -36 8 -64 8 -50 0 -53 2 -53 25 0 23 4 25
46 25 l45 0 -18 30 c-10 17 -31 43 -46 58 l-29 27 -39 -44 c-22 -24 -70 -105
-107 -180 l-67 -136 -166 0 c-109 0 -166 4 -166 10 0 6 -11 37 -26 68 l-26 57
60 0 c56 0 59 1 59 25 0 24 -2 25 -73 25 l-73 0 -24 42 c-25 45 -97 128 -110
128 -5 0 -20 -14 -35 -31z m87 -827 c75 -52 82 -63 69 -122 -14 -63 -14 -151
0 -209 5 -24 7 -46 4 -49 -11 -12 -92 22 -122 51 -38 36 -41 47 -12 47 15 0
20 5 17 23 -2 17 -11 23 -35 25 -21 2 -33 9 -33 18 0 10 -13 14 -45 14 -41 0
-45 2 -45 25 0 22 4 25 39 25 l38 0 7 88 c4 48 8 95 9 104 1 15 5 15 34 3 18
-8 52 -27 75 -43z m787 14 c16 -66 13 -173 -7 -232 -22 -62 -55 -105 -102
-132 -37 -21 -119 -42 -89 -23 24 15 33 123 19 218 l-12 78 41 35 c23 20 41
41 41 48 0 7 13 12 30 12 19 0 33 7 40 20 16 31 27 24 39 -24z m-604 -220 c26
-54 57 -171 47 -180 -3 -3 -29 -6 -59 -6 -51 0 -53 1 -43 20 6 11 13 55 17 98
4 61 2 85 -11 109 -21 42 -20 50 4 28 11 -10 31 -41 45 -69z m350 -13 c0 -54
4 -115 8 -135 l8 -38 -55 0 -55 0 6 33 c3 17 14 57 25 87 11 30 22 66 24 80 7
30 25 70 33 70 3 0 6 -44 6 -97z"/>
<path d="M1500 2425 c0 -20 5 -25 25 -25 20 0 25 5 25 25 0 20 -5 25 -25 25
-20 0 -25 -5 -25 -25z"/>
<path d="M2150 2270 c0 -15 7 -20 25 -20 18 0 25 5 25 20 0 15 -7 20 -25 20
-18 0 -25 -5 -25 -20z"/>
<path d="M2607 1843 c-4 -3 -7 -15 -7 -25 0 -13 7 -18 25 -18 20 0 25 5 25 25
0 18 -5 25 -18 25 -10 0 -22 -3 -25 -7z"/>
<path d="M1960 945 c0 -20 5 -25 25 -25 20 0 25 5 25 25 0 20 -5 25 -25 25
-20 0 -25 -5 -25 -25z"/>
<path d="M2910 905 c0 -18 5 -25 20 -25 15 0 20 7 20 25 0 18 -5 25 -20 25
-15 0 -20 -7 -20 -25z"/>
<path d="M236 871 c-12 -13 -46 -152 -46 -188 0 -2 7 -3 15 -3 8 0 15 1 15 3
0 1 7 40 15 87 8 47 15 86 15 88 0 8 235 0 253 -9 16 -9 22 -9 25 0 3 8 59 11
189 11 178 0 185 -1 190 -21 6 -20 6 -20 27 0 19 18 36 19 188 20 l167 1 25
-31 c31 -36 30 -27 7 -164 -17 -99 -22 -112 -51 -138 l-32 -28 34 3 c18 2 33
8 33 15 0 6 3 15 8 19 4 4 7 1 7 -6 0 -8 12 -27 27 -42 26 -28 29 -28 142 -28
99 0 121 3 149 20 19 12 32 26 29 33 -3 7 2 22 10 32 15 20 15 20 9 -1 -4 -13
3 -30 20 -52 25 -30 31 -32 89 -32 76 0 91 13 88 79 -1 46 -1 46 11 16 7 -17
30 -45 51 -63 l37 -33 97 4 c53 3 101 5 106 6 6 0 36 -2 68 -5 57 -6 94 7 81
27 -10 16 5 9 30 -15 15 -13 26 -33 26 -45 0 -20 4 -21 130 -21 l130 0 0 25
c0 23 3 25 49 25 40 0 53 4 65 22 21 29 4 48 -25 29 -16 -9 -64 -12 -188 -10
-210 4 -203 2 -195 48 3 20 8 44 11 54 3 12 -1 17 -16 17 -17 0 -21 -9 -27
-51 -9 -64 -31 -78 -100 -62 -31 7 -58 8 -82 1 -59 -16 -176 -6 -202 17 -21
19 -22 26 -16 108 l7 87 -25 0 c-26 0 -26 1 -46 -120 -18 -104 -15 -100 -73
-100 -81 0 -82 3 -63 106 21 119 22 114 -24 114 -37 0 -39 -1 -30 -24 15 -39
-12 -145 -44 -173 -25 -21 -36 -23 -146 -23 -74 0 -121 4 -125 11 -10 15 4
117 18 132 7 6 12 37 12 67 1 79 11 108 48 130 30 18 51 20 283 20 181 0 253
-3 262 -12 9 -9 15 -9 24 0 15 15 181 16 208 2 13 -7 21 -7 25 0 4 6 54 10
118 10 86 0 118 -4 135 -16 20 -14 22 -14 22 0 0 14 20 16 140 16 118 0 140
-2 140 -15 0 -9 9 -15 22 -15 21 0 21 1 -7 30 l-29 30 -132 0 c-78 0 -135 -4
-139 -10 -4 -7 -12 -7 -25 0 -10 5 -70 10 -134 10 -66 0 -117 -4 -121 -10 -4
-7 -12 -7 -25 0 -25 13 -166 13 -192 -1 -14 -8 -23 -8 -31 0 -7 7 -94 11 -261
11 -231 0 -254 -2 -283 -20 -18 -10 -39 -30 -48 -43 l-15 -24 -44 43 -43 44
-163 -1 c-103 -1 -170 -5 -181 -12 -14 -9 -22 -8 -31 1 -15 15 -374 17 -383 2
-4 -7 -12 -7 -25 0 -10 5 -70 10 -133 10 -98 0 -116 -3 -131 -19z"/>
<path d="M270 816 c0 -7 -3 -28 -6 -45 l-6 -31 126 0 126 0 0 33 c0 52 -12 57
-132 57 -85 0 -108 -3 -108 -14z"/>
<path d="M546 814 c-3 -9 -6 -29 -6 -45 l0 -29 110 0 c80 0 112 3 114 13 3 6
7 27 10 45 l6 32 -114 0 c-95 0 -115 -3 -120 -16z"/>
<path d="M800 816 c0 -7 -3 -28 -6 -45 -6 -31 -6 -31 34 -31 42 0 52 13 52 68
0 19 -5 22 -40 22 -27 0 -40 -4 -40 -14z"/>
<path d="M930 792 c-14 -20 -26 -40 -28 -44 -2 -5 16 -8 40 -8 41 0 47 3 77
45 l32 45 -48 0 c-44 0 -50 -3 -73 -38z"/>
<path d="M1081 808 c-12 -12 -21 -32 -21 -45 0 -23 1 -23 120 -23 132 0 143 5
124 59 -9 25 -12 26 -106 29 -89 2 -98 1 -117 -20z"/>
<path d="M1442 814 c-14 -10 -22 -25 -22 -45 l0 -29 120 0 c88 0 122 3 124 13
3 6 7 27 10 45 l6 32 -108 0 c-81 0 -113 -4 -130 -16z"/>
<path d="M1700 808 c0 -13 -3 -33 -6 -45 -6 -23 -6 -23 119 -23 121 0 125 1
131 23 3 12 6 32 6 45 0 22 -2 22 -125 22 -123 0 -125 0 -125 -22z"/>
<path d="M1995 805 c-14 -13 -25 -34 -25 -46 0 -17 4 -20 23 -15 12 3 68 6
125 6 100 0 102 0 102 23 0 43 -28 57 -119 57 -74 0 -84 -2 -106 -25z"/>
<path d="M2256 814 c-3 -9 -6 -27 -6 -40 l0 -24 125 0 c113 0 125 2 125 18 0
10 -7 28 -16 40 -14 20 -23 22 -118 22 -86 0 -105 -3 -110 -16z"/>
<path d="M2530 813 c0 -10 -3 -28 -6 -40 -6 -23 -6 -23 111 -23 117 0 117 0
111 23 -3 12 -6 30 -6 40 0 15 -12 17 -105 17 -93 0 -105 -2 -105 -17z"/>
<path d="M2780 768 c0 -2 -7 -41 -15 -88 -19 -108 -19 -110 5 -110 11 0 20 5
20 10 0 6 11 10 25 10 20 0 25 5 25 25 0 18 -5 25 -20 25 -20 0 -25 15 -14 44
5 12 21 16 70 16 62 0 64 1 64 25 0 24 -3 25 -60 25 -33 0 -60 4 -60 10 0 6
-9 10 -20 10 -11 0 -20 -1 -20 -2z"/>
<path d="M1000 716 c-28 -38 -27 -32 -10 -76 l13 -35 12 70 c7 39 12 71 11 72
0 0 -12 -13 -26 -31z"/>
<path d="M257 713 c-16 -15 -6 -33 18 -33 20 0 25 -5 25 -25 0 -21 -5 -25 -30
-25 -16 0 -30 -3 -30 -7 -1 -5 -5 -27 -9 -50 l-8 -43 38 0 c42 0 42 -1 58 94
17 92 16 96 -22 96 -19 0 -37 -3 -40 -7z"/>
<path d="M344 613 l-19 -108 -44 -3 c-25 -2 -55 -1 -68 3 -21 5 -24 10 -19 35
3 17 9 44 12 60 4 23 2 30 -10 30 -9 0 -16 -6 -16 -12 -1 -7 -5 -32 -9 -55 -7
-37 -5 -46 17 -73 23 -28 30 -30 89 -30 57 0 66 3 70 20 l6 21 14 -21 c8 -11
21 -20 29 -20 8 0 14 -10 14 -25 l0 -25 125 0 125 0 0 25 c0 24 1 24 108 27
80 2 106 6 104 16 -2 9 3 9 20 -2 18 -11 56 -15 161 -15 129 0 137 1 137 19 0
18 -8 20 -67 22 -38 1 -103 0 -145 -1 l-76 -3 -18 33 -18 34 -6 -30 -5 -30
-239 -3 c-132 -1 -243 1 -247 5 -4 5 0 52 10 106 10 53 15 99 13 102 -19 19
-30 -7 -48 -102z"/>
<path d="M425 708 c-2 -7 -9 -40 -15 -73 -6 -33 -13 -70 -16 -82 -4 -21 -1
-23 35 -23 44 0 43 -1 60 94 17 93 16 96 -24 96 -20 0 -37 -6 -40 -12z"/>
<path d="M516 633 c-9 -49 -16 -91 -16 -95 0 -5 52 -8 115 -8 91 0 115 3 115
14 0 7 3 28 6 45 l7 31 -72 0 c-56 0 -71 3 -71 15 0 12 15 15 75 15 53 0 75 4
75 13 0 6 3 22 6 35 6 22 6 22 -109 22 l-115 0 -16 -87z"/>
<path d="M771 643 c-7 -43 -15 -86 -18 -96 -4 -16 1 -18 38 -15 l44 3 10 60
11 60 28 -62 29 -63 43 0 c24 0 44 4 44 9 0 5 -14 40 -30 77 -21 46 -27 71
-20 78 21 21 7 26 -79 26 l-88 0 -12 -77z"/>
<path d="M1041 644 c-17 -104 -8 -114 104 -114 108 0 128 14 144 103 15 89 16
87 -28 87 -38 0 -39 0 -47 -47 -9 -48 -9 -48 -53 -51 l-44 -3 6 50 6 51 -38 0
-38 0 -12 -76z"/>
<path d="M1156 704 c-10 -27 -7 -54 8 -54 15 0 26 21 26 51 0 23 -25 25 -34 3z"/>
<path d="M1410 695 c0 -33 27 -45 100 -45 45 0 61 -3 58 -12 -3 -9 -33 -14
-90 -16 l-86 -3 -6 -31 c-12 -60 -15 -58 99 -58 97 0 108 2 129 23 32 32 44
122 20 148 -15 16 -32 19 -121 19 -103 0 -103 0 -103 -25z"/>
<path d="M1756 633 c-9 -49 -16 -91 -16 -95 0 -5 18 -8 40 -8 22 0 40 1 40 3
0 1 7 40 15 87 8 47 15 88 15 93 0 4 -18 7 -39 7 l-39 0 -16 -87z"/>
<path d="M1951 649 c-10 -61 -9 -75 4 -95 14 -22 22 -24 99 -24 110 0 129 14
145 103 15 89 16 87 -29 87 -36 0 -40 -3 -40 -24 0 -14 -4 -36 -10 -50 -8 -22
-16 -26 -51 -26 l-41 0 7 50 7 50 -40 0 -39 0 -12 -71z"/>
<path d="M2066 698 c-10 -38 -7 -48 14 -48 13 0 20 7 20 19 0 11 3 26 6 35 4
11 0 16 -14 16 -12 0 -22 -9 -26 -22z"/>
<path d="M2232 673 c-6 -27 -13 -69 -17 -95 l-7 -48 40 0 c40 0 40 1 47 43 12
76 12 77 61 77 51 0 48 10 28 -91 -6 -30 -5 -30 32 -27 l39 3 12 70 c7 39 15
80 18 93 5 22 5 22 -119 22 l-124 0 -10 -47z"/>
<path d="M2502 643 c-19 -120 -22 -113 53 -113 58 0 65 2 65 20 0 17 7 20 49
20 44 0 49 2 53 25 5 24 4 24 -66 27 -39 2 -71 8 -71 13 0 6 34 12 75 15 l75
5 3 33 3 32 -114 0 -114 0 -11 -77z"/>
<path d="M725 391 c-47 -21 -90 -74 -116 -142 -26 -68 -24 -96 9 -129 39 -39
98 -47 155 -22 83 37 107 85 66 136 -32 41 -119 34 -119 -10 0 -21 5 -24 38
-24 l37 0 -32 -21 c-17 -11 -48 -23 -67 -26 -31 -5 -36 -3 -36 14 0 10 10 39
23 63 18 38 28 46 56 50 35 5 56 30 25 30 -13 0 -12 5 10 26 29 30 34 59 10
68 -19 7 -12 9 -59 -13z"/>
<path d="M912 402 c-6 -2 -12 -9 -12 -17 0 -7 -10 -19 -22 -27 -22 -15 -22
-16 -5 -41 15 -23 16 -41 11 -119 -6 -85 -5 -95 15 -118 21 -25 21 -25 37 -5
11 14 14 37 12 77 -3 56 -3 57 23 51 21 -4 36 3 68 32 62 56 78 140 31 165
-18 10 -131 11 -158 2z m114 -69 c-18 -35 -82 -96 -73 -70 4 10 7 27 7 38 0
12 10 23 26 29 14 6 22 14 19 20 -3 5 3 10 15 10 19 0 20 -2 6 -27z"/>
<path d="M1266 388 c-3 -13 -10 -53 -15 -91 -17 -115 -82 -174 -89 -79 -3 37
0 44 17 49 24 6 29 33 6 33 -11 0 -14 10 -11 41 4 34 1 42 -17 48 -19 7 -24 3
-35 -28 -7 -20 -16 -68 -19 -106 -6 -81 11 -129 49 -141 13 -4 25 -10 28 -15
10 -15 50 3 50 22 0 26 7 24 35 -8 13 -16 27 -25 31 -20 10 10 24 234 17 267
-11 50 -39 66 -47 28z"/>
<path d="M1704 395 c-37 -15 -87 -72 -118 -133 -34 -68 -40 -105 -22 -141 13
-25 25 -31 73 -41 48 -10 61 -10 90 4 26 12 34 22 31 39 -3 24 -11 25 -90 12
-47 -7 -48 -7 -48 19 0 22 4 26 30 26 20 0 30 5 30 15 0 8 -9 15 -20 15 -11 0
-20 3 -20 8 0 12 30 53 64 90 17 18 30 35 29 38 -7 12 -1 12 24 -1 42 -22 61
6 26 37 -28 24 -47 27 -79 13z"/>
<path d="M2560 335 c0 -18 5 -25 20 -25 15 0 20 7 20 25 0 18 -5 25 -20 25
-15 0 -20 -7 -20 -25z"/>
<path d="M1996 318 c-10 -49 -7 -198 4 -219 20 -36 40 -23 40 26 0 25 5 45 10
45 6 0 8 16 5 38 -2 20 -7 58 -10 83 -4 34 -11 48 -24 52 -15 3 -20 -2 -25
-25z"/>
<path d="M320 315 c0 -18 5 -25 20 -25 15 0 20 7 20 25 0 18 -5 25 -20 25 -15
0 -20 -7 -20 -25z"/>
<path d="M1816 324 c-3 -9 -6 -31 -6 -50 0 -20 -5 -67 -12 -105 -10 -64 -10
-71 8 -84 17 -12 21 -12 31 2 7 9 15 35 19 59 3 24 11 44 17 44 5 0 15 7 22
17 10 13 13 5 18 -47 5 -56 16 -79 38 -80 11 0 15 32 14 132 0 104 -11 132
-40 108 -8 -7 -15 -23 -15 -36 0 -13 -2 -24 -4 -24 -2 0 -11 -3 -20 -6 -11 -4
-16 0 -16 14 0 52 -40 93 -54 56z"/>
<path d="M2086 314 c-3 -9 -6 -57 -6 -108 0 -80 3 -95 20 -111 18 -16 23 -17
57 -3 30 11 38 19 38 38 0 21 -4 25 -27 23 -28 -2 -28 -1 -28 62 0 67 -15 115
-36 115 -6 0 -15 -7 -18 -16z"/>
<path d="M2222 319 c-24 -7 -32 -14 -28 -27 2 -9 7 -39 11 -67 12 -98 21 -112
70 -119 42 -7 85 5 85 22 -1 24 -20 35 -54 29 -46 -7 -47 8 -1 23 19 6 35 15
35 20 0 19 -33 40 -52 34 -13 -4 -24 -1 -29 7 -14 22 -11 29 14 29 32 0 67 11
67 20 0 5 -7 16 -16 24 -17 18 -52 19 -102 5z m66 -36 c-10 -2 -26 -2 -35 0
-10 3 -2 5 17 5 19 0 27 -2 18 -5z"/>
<path d="M1395 312 c-30 -6 -65 -43 -65 -68 0 -27 26 -44 67 -44 27 -1 27 -1
9 -15 -11 -8 -32 -15 -48 -15 -35 0 -35 -10 -2 -39 21 -18 32 -21 69 -15 41 6
44 8 50 44 7 44 -6 76 -35 85 -16 5 -18 10 -10 25 19 35 6 51 -35 42z"/>
<path d="M820 280 c0 -5 7 -10 15 -10 8 0 15 5 15 10 0 6 -7 10 -15 10 -8 0
-15 -4 -15 -10z"/>
</g>
</svg>
