<?xml version="1.0" encoding="UTF-8"?>
<!DOCTYPE svg PUBLIC "-//W3C//DTD SVG 1.1//EN" "http://www.w3.org/Graphics/SVG/1.1/DTD/svg11.dtd">
<svg xmlns="http://www.w3.org/2000/svg" version="1.1" width="298px" height="258px" style="shape-rendering:geometricPrecision; text-rendering:geometricPrecision; image-rendering:optimizeQuality; fill-rule:evenodd; clip-rule:evenodd" xmlns:xlink="http://www.w3.org/1999/xlink">
<g><path style="opacity:0.914" fill="#15fbf8" d="M 109.5,4.5 C 100.172,17.1581 93.5057,31.1581 89.5,46.5C 88.1266,46.6567 86.7932,46.49 85.5,46C 87.8679,39.0652 90.5346,32.2319 93.5,25.5C 86.1968,24.5027 78.8635,24.1694 71.5,24.5C 71.5,22.1667 71.5,19.8333 71.5,17.5C 80.1731,17.6664 88.8397,17.4998 97.5,17C 99.9012,11.7717 103.234,7.27169 107.5,3.5C 108.183,3.86273 108.85,4.19607 109.5,4.5 Z"/></g>
<g><path style="opacity:0.996" fill="#110f16" d="M 112.5,5.5 C 116.228,10.6053 119.728,15.9386 123,21.5C 125.608,27.7119 128.442,33.7119 131.5,39.5C 141.653,40.4942 151.986,40.8276 162.5,40.5C 163.675,40.719 164.675,40.3857 165.5,39.5C 170.395,26.6977 177.061,15.0311 185.5,4.5C 186.779,3.28485 187.779,3.61818 188.5,5.5C 190.489,8.80561 192.489,12.1389 194.5,15.5C 191.833,15.5 189.167,15.5 186.5,15.5C 186.5,17.1667 186.5,18.8333 186.5,20.5C 190.167,20.5 193.833,20.5 197.5,20.5C 206.253,38.1773 211.586,56.844 213.5,76.5C 206.833,76.5 200.167,76.5 193.5,76.5C 193.5,77.8333 193.5,79.1667 193.5,80.5C 200.167,80.5 206.833,80.5 213.5,80.5C 213.5,81.1667 213.5,81.8333 213.5,82.5C 209.91,82.3972 206.41,82.7305 203,83.5C 202,82.8333 201,82.1667 200,81.5C 197.948,82.7929 195.781,83.7929 193.5,84.5C 192.209,84.2627 191.209,84.596 190.5,85.5C 187.911,85.461 185.911,86.461 184.5,88.5C 184.167,88.5 183.833,88.5 183.5,88.5C 180.167,90.8333 176.833,93.1667 173.5,95.5C 163.624,95.7635 153.624,95.7635 143.5,95.5C 136.578,95.7958 129.911,96.7958 123.5,98.5C 119.571,92.0205 113.905,87.6872 106.5,85.5C 105.153,84.8288 103.986,84.8288 103,85.5C 101.851,88.3926 101.351,91.3926 101.5,94.5C 100.834,97.6893 100.167,101.023 99.5,104.5C 89.7507,103.208 79.7507,102.208 69.5,101.5C 68.8933,101.624 68.56,101.957 68.5,102.5C 64.9936,96.3175 62.6603,89.6508 61.5,82.5C 61.4346,82.0618 61.6012,81.7284 62,81.5C 67.359,85.0988 73.1923,87.4322 79.5,88.5C 79.811,89.4778 80.4777,90.1445 81.5,90.5C 82.5226,76.978 84.5226,63.6446 87.5,50.5C 93.5,50.5 99.5,50.5 105.5,50.5C 105.5,49.1667 105.5,47.8333 105.5,46.5C 100.167,46.5 94.8333,46.5 89.5,46.5C 93.5057,31.1581 100.172,17.1581 109.5,4.5C 110.779,3.28485 111.779,3.61818 112.5,5.5 Z"/></g>
<g><path style="opacity:0.844" fill="#15f3f1" d="M 185.5,4.5 C 177.061,15.0311 170.395,26.6977 165.5,39.5C 164.675,40.3857 163.675,40.719 162.5,40.5C 162.5,40.1667 162.5,39.8333 162.5,39.5C 166.455,26.0839 173.122,14.2505 182.5,4C 183.577,3.53042 184.577,3.69708 185.5,4.5 Z"/></g>
<g><path style="opacity:1" fill="#12fffc" d="M 76.5,7.5 C 78.5,7.5 80.5,7.5 82.5,7.5C 82.5,9.5 82.5,11.5 82.5,13.5C 80.5,13.5 78.5,13.5 76.5,13.5C 76.5,11.5 76.5,9.5 76.5,7.5 Z"/></g>
<g><path style="opacity:0.825" fill="#f31b64" d="M 149.5,12.5 C 151.5,12.5 153.5,12.5 155.5,12.5C 155.5,14.5 155.5,16.5 155.5,18.5C 153.5,18.5 151.5,18.5 149.5,18.5C 149.5,16.5 149.5,14.5 149.5,12.5 Z"/></g>
<g><path style="opacity:0.747" fill="#da195b" d="M 188.5,5.5 C 191.98,7.94674 194.647,11.1134 196.5,15C 195.906,15.4643 195.239,15.631 194.5,15.5C 192.489,12.1389 190.489,8.80561 188.5,5.5 Z"/></g>
<g><path style="opacity:0.876" fill="#14fffb" d="M 54.5,17.5 C 56.5,17.5 58.5,17.5 60.5,17.5C 60.5,19.8333 60.5,22.1667 60.5,24.5C 58.5,24.5 56.5,24.5 54.5,24.5C 54.5,22.1667 54.5,19.8333 54.5,17.5 Z"/></g>
<g><path style="opacity:0.777" fill="#ea1b62" d="M 112.5,5.5 C 117.078,9.80172 121.078,14.6351 124.5,20C 129.155,20.4992 133.821,20.6658 138.5,20.5C 138.5,22.8333 138.5,25.1667 138.5,27.5C 135.102,27.1796 131.768,27.513 128.5,28.5C 130.036,31.7775 131.369,35.1109 132.5,38.5C 132.5,39.1667 132.167,39.5 131.5,39.5C 128.442,33.7119 125.608,27.7119 123,21.5C 119.728,15.9386 116.228,10.6053 112.5,5.5 Z"/></g>
<g><path style="opacity:0.922" fill="#f21c65" d="M 214.5,27.5 C 216.5,27.5 218.5,27.5 220.5,27.5C 220.5,29.5 220.5,31.5 220.5,33.5C 218.5,33.5 216.5,33.5 214.5,33.5C 214.5,31.5 214.5,29.5 214.5,27.5 Z"/></g>
<g><path style="opacity:0.963" fill="#e81b60" d="M 197.5,20.5 C 198.496,20.4142 199.329,20.7476 200,21.5C 201.226,24.9518 202.726,28.2852 204.5,31.5C 206.396,32.4656 208.396,32.7989 210.5,32.5C 210.5,34.5 210.5,36.5 210.5,38.5C 209.5,38.5 208.5,38.5 207.5,38.5C 211.525,50.4338 214.525,62.6005 216.5,75C 215.756,76.0386 214.756,76.5386 213.5,76.5C 211.586,56.844 206.253,38.1773 197.5,20.5 Z"/></g>
<g><path style="opacity:1" fill="#1b898b" d="M 132.5,38.5 C 142.532,38.2705 152.532,38.6039 162.5,39.5C 162.5,39.8333 162.5,40.1667 162.5,40.5C 151.986,40.8276 141.653,40.4942 131.5,39.5C 132.167,39.5 132.5,39.1667 132.5,38.5 Z"/></g>
<g><path style="opacity:0.945" fill="#14fbf9" d="M 87.5,50.5 C 84.5226,63.6446 82.5226,76.978 81.5,90.5C 80.4777,90.1445 79.811,89.4778 79.5,88.5C 79.5,85.1667 79.5,81.8333 79.5,78.5C 71.8333,78.5 64.1667,78.5 56.5,78.5C 56.5,76.5 56.5,74.5 56.5,72.5C 64.5,72.5 72.5,72.5 80.5,72.5C 81.0845,65.7429 82.2511,59.0763 84,52.5C 84.7096,51.0267 85.8762,50.3601 87.5,50.5 Z"/></g>
<g><path style="opacity:0.875" fill="#f21b64" d="M 259.5,72.5 C 261.5,72.5 263.5,72.5 265.5,72.5C 265.5,74.5 265.5,76.5 265.5,78.5C 263.5,78.5 261.5,78.5 259.5,78.5C 259.5,76.5 259.5,74.5 259.5,72.5 Z"/></g>
<g><path style="opacity:0.908" fill="#d6255e" d="M 213.5,80.5 C 214.5,80.5 215.5,80.5 216.5,80.5C 216.5,82.8333 216.5,85.1667 216.5,87.5C 216.027,88.9063 215.027,89.573 213.5,89.5C 213.5,87.1667 213.5,84.8333 213.5,82.5C 213.5,81.8333 213.5,81.1667 213.5,80.5 Z"/></g>
<g><path style="opacity:0.842" fill="#16f3f1" d="M 61.5,82.5 C 62.6603,89.6508 64.9936,96.3175 68.5,102.5C 70.9314,108.526 74.2648,114.026 78.5,119C 74.3112,119.812 70.3112,119.645 66.5,118.5C 69.1873,118.664 71.854,118.497 74.5,118C 65.2243,107.167 60.0576,94.6668 59,80.5C 59.7083,81.3805 60.5416,82.0472 61.5,82.5 Z"/></g>
<g><path style="opacity:0.748" fill="#2feceb" d="M 232.5,82.5 C 227.341,86.3976 221.508,89.0642 215,90.5C 214.235,90.4301 213.735,90.0967 213.5,89.5C 215.027,89.573 216.027,88.9063 216.5,87.5C 222.214,86.3932 227.381,84.0599 232,80.5C 232.464,81.0944 232.631,81.7611 232.5,82.5 Z"/></g>
<g><path style="opacity:0.964" fill="#e72564" d="M 106.5,85.5 C 106.5,85.8333 106.5,86.1667 106.5,86.5C 106.5,86.8333 106.5,87.1667 106.5,87.5C 105.596,88.209 105.263,89.209 105.5,90.5C 104.532,92.6074 104.198,94.9407 104.5,97.5C 103.167,99.8333 103.167,102.167 104.5,104.5C 103.791,105.404 102.791,105.737 101.5,105.5C 101.5,101.833 101.5,98.1667 101.5,94.5C 101.351,91.3926 101.851,88.3926 103,85.5C 103.986,84.8288 105.153,84.8288 106.5,85.5 Z"/></g>
<g><path style="opacity:0.966" fill="#e42c66" d="M 190.5,85.5 C 191.625,86.3478 191.625,87.3478 190.5,88.5C 190.167,88.5 189.833,88.5 189.5,88.5C 187.833,88.5 186.167,88.5 184.5,88.5C 185.911,86.461 187.911,85.461 190.5,85.5 Z"/></g>
<g><path style="opacity:0.957" fill="#ef1c64" d="M 223.5,118.5 C 222.833,118.5 222.5,118.833 222.5,119.5C 221.127,119.657 219.793,119.49 218.5,119C 226.939,108.53 232.605,96.6965 235.5,83.5C 236.423,82.6971 237.423,82.5304 238.5,83C 237.227,88.5874 235.56,94.0874 233.5,99.5C 241.138,100.497 248.804,100.831 256.5,100.5C 256.5,102.5 256.5,104.5 256.5,106.5C 247.827,106.334 239.16,106.5 230.5,107C 227.914,110.736 225.581,114.57 223.5,118.5 Z"/></g>
<g><path style="opacity:0.899" fill="#30f3f2" d="M 190.5,85.5 C 191.209,84.596 192.209,84.2627 193.5,84.5C 197.136,97.4361 195.803,109.769 189.5,121.5C 184.751,125.742 179.417,127.742 173.5,127.5C 174.609,127.443 175.609,127.11 176.5,126.5C 185.958,122.262 190.958,114.929 191.5,104.5C 189.167,104.5 186.833,104.5 184.5,104.5C 184.5,102.5 184.5,100.5 184.5,98.5C 187.167,98.5 189.833,98.5 192.5,98.5C 192.247,94.9601 191.581,91.6267 190.5,88.5C 191.625,87.3478 191.625,86.3478 190.5,85.5 Z"/></g>
<g><path style="opacity:0.93" fill="#6bf6f4" d="M 183.5,88.5 C 183.833,88.5 184.167,88.5 184.5,88.5C 186.167,88.5 187.833,88.5 189.5,88.5C 189.5,90.5 189.5,92.5 189.5,94.5C 186.918,94.9746 184.918,94.3079 183.5,92.5C 183.5,91.1667 183.5,89.8333 183.5,88.5 Z"/></g>
<g><path style="opacity:0.856" fill="#22f6f5" d="M 106.5,86.5 C 106.5,86.1667 106.5,85.8333 106.5,85.5C 113.905,87.6872 119.571,92.0205 123.5,98.5C 121.57,105.545 121.237,112.545 122.5,119.5C 122.704,122.518 123.037,125.518 123.5,128.5C 122.209,128.737 121.209,128.404 120.5,127.5C 117.836,117.53 117.836,107.53 120.5,97.5C 119.687,96.1861 118.687,95.0195 117.5,94C 113.514,93.5012 109.514,93.3345 105.5,93.5C 105.5,92.5 105.5,91.5 105.5,90.5C 105.263,89.209 105.596,88.209 106.5,87.5C 107.833,87.1667 107.833,86.8333 106.5,86.5 Z"/></g>
<g><path style="opacity:0.996" fill="#11fdf9" d="M 104.5,97.5 C 105.833,97.5 107.167,97.5 108.5,97.5C 108.5,99.8333 108.5,102.167 108.5,104.5C 107.167,104.5 105.833,104.5 104.5,104.5C 103.167,102.167 103.167,99.8333 104.5,97.5 Z"/></g>
<g><path style="opacity:1" fill="#1c1127" d="M 173.5,95.5 C 174.163,100.494 174.83,105.494 175.5,110.5C 175.165,114.507 174.832,118.507 174.5,122.5C 172.833,122.5 171.167,122.5 169.5,122.5C 168.846,116.19 168.346,109.857 168,103.5C 166.955,104.373 166.122,105.373 165.5,106.5C 161.869,110.826 159.536,115.826 158.5,121.5C 152.53,120.502 146.53,119.502 140.5,118.5C 139.478,118.855 138.811,119.522 138.5,120.5C 136.072,113.649 132.572,107.316 128,101.5C 127.51,102.793 127.343,104.127 127.5,105.5C 127.5,109.5 127.5,113.5 127.5,117.5C 125.219,117.077 123.552,117.744 122.5,119.5C 121.237,112.545 121.57,105.545 123.5,98.5C 129.911,96.7958 136.578,95.7958 143.5,95.5C 153.624,95.7635 163.624,95.7635 173.5,95.5 Z"/></g>
<g><path style="opacity:1" fill="#1a1123" d="M 213.5,82.5 C 213.5,84.8333 213.5,87.1667 213.5,89.5C 213.735,90.0967 214.235,90.4301 215,90.5C 221.508,89.0642 227.341,86.3976 232.5,82.5C 234.196,80.871 235.196,81.2043 235.5,83.5C 232.605,96.6965 226.939,108.53 218.5,119C 219.793,119.49 221.127,119.657 222.5,119.5C 223.833,119.5 225.167,119.5 226.5,119.5C 214.336,119.636 202.003,120.303 189.5,121.5C 195.803,109.769 197.136,97.4361 193.5,84.5C 195.781,83.7929 197.948,82.7929 200,81.5C 201,82.1667 202,82.8333 203,83.5C 206.41,82.7305 209.91,82.3972 213.5,82.5 Z"/></g>
<g><path style="opacity:0.973" fill="#e91c62" d="M 183.5,88.5 C 183.5,89.8333 183.5,91.1667 183.5,92.5C 180.418,94.0748 177.751,96.2415 175.5,99C 177.749,108.062 178.082,117.228 176.5,126.5C 175.609,127.11 174.609,127.443 173.5,127.5C 173.366,125.708 173.699,124.042 174.5,122.5C 174.832,118.507 175.165,114.507 175.5,110.5C 174.83,105.494 174.163,100.494 173.5,95.5C 176.833,93.1667 180.167,90.8333 183.5,88.5 Z"/></g>
<g><path style="opacity:0.996" fill="#10fdfa" d="M 45.5,106.5 C 47.5,106.5 49.5,106.5 51.5,106.5C 52.5,111.5 50.5,113.5 45.5,112.5C 45.5,110.5 45.5,108.5 45.5,106.5 Z"/></g>
<g><path style="opacity:0.964" fill="#ef2667" d="M 128.5,106.5 C 130.448,108.32 131.448,110.654 131.5,113.5C 130.915,118.515 130.248,123.515 129.5,128.5C 128.833,128.5 128.5,128.833 128.5,129.5C 127.414,129.38 126.747,128.713 126.5,127.5C 128.16,120.601 128.826,113.601 128.5,106.5 Z"/></g>
<g><path style="opacity:0.855" fill="#43e8e9" d="M 138.5,120.5 C 138.704,123.518 139.037,126.518 139.5,129.5C 135.833,129.5 132.167,129.5 128.5,129.5C 128.5,128.833 128.833,128.5 129.5,128.5C 131.5,128.5 133.5,128.5 135.5,128.5C 135.235,123.101 133.902,118.101 131.5,113.5C 131.448,110.654 130.448,108.32 128.5,106.5C 128.5,105.833 128.167,105.5 127.5,105.5C 127.343,104.127 127.51,102.793 128,101.5C 132.572,107.316 136.072,113.649 138.5,120.5 Z"/></g>
<g><path style="opacity:0.939" fill="#e22162" d="M 165.5,106.5 C 165.721,109.279 165.388,111.946 164.5,114.5C 162.563,118.98 161.229,123.647 160.5,128.5C 160.5,128.833 160.5,129.167 160.5,129.5C 159.5,129.5 158.5,129.5 157.5,129.5C 157.575,126.794 157.908,124.127 158.5,121.5C 159.536,115.826 161.869,110.826 165.5,106.5 Z"/></g>
<g><path style="opacity:0.88" fill="#56eff0" d="M 169.5,122.5 C 170.219,124.764 170.552,127.097 170.5,129.5C 167.167,129.5 163.833,129.5 160.5,129.5C 160.5,129.167 160.5,128.833 160.5,128.5C 162.924,128.808 165.257,128.474 167.5,127.5C 166.254,123.093 165.254,118.76 164.5,114.5C 165.388,111.946 165.721,109.279 165.5,106.5C 166.122,105.373 166.955,104.373 168,103.5C 168.346,109.857 168.846,116.19 169.5,122.5 Z"/></g>
<g><path style="opacity:0.516" fill="#15f8f6" d="M 232.5,118.5 C 230.621,119.341 228.621,119.675 226.5,119.5C 225.167,119.5 223.833,119.5 222.5,119.5C 222.5,118.833 222.833,118.5 223.5,118.5C 226.696,117.888 229.696,117.888 232.5,118.5 Z"/></g>
<g><path style="opacity:1" fill="#311443" d="M 226.5,127.5 C 220.122,133.213 213.455,138.547 206.5,143.5C 198.833,143.5 191.167,143.5 183.5,143.5C 183.083,142.876 182.416,142.543 181.5,142.5C 154.42,145.608 127.42,145.108 100.5,141C 93.7347,139.134 87.0681,136.967 80.5,134.5C 79.8933,134.624 79.56,134.957 79.5,135.5C 73.5374,131.205 68.204,126.205 63.5,120.5C 63.56,119.957 63.8933,119.624 64.5,119.5C 86.2071,126.88 108.374,130.547 131,130.5C 162.445,133.646 194.279,132.646 226.5,127.5 Z"/></g>
<g><path style="opacity:0.909" fill="#ed1c63" d="M 235.5,119.5 C 237.028,119.517 237.528,120.184 237,121.5C 229.722,129.784 221.556,136.951 212.5,143C 210.527,143.495 208.527,143.662 206.5,143.5C 213.455,138.547 220.122,133.213 226.5,127.5C 229.526,124.805 232.526,122.138 235.5,119.5 Z"/></g>
<g><path style="opacity:1" fill="#2a1439" d="M 101.5,94.5 C 101.5,98.1667 101.5,101.833 101.5,105.5C 99.5,105.5 97.5,105.5 95.5,105.5C 95.5,107.167 95.5,108.833 95.5,110.5C 97.8333,110.5 100.167,110.5 102.5,110.5C 103.711,113.926 105.211,117.259 107,120.5C 108.129,122.141 109.629,123.141 111.5,123.5C 114.127,125.601 117.127,126.934 120.5,127.5C 121.209,128.404 122.209,128.737 123.5,128.5C 123.037,125.518 122.704,122.518 122.5,119.5C 123.552,117.744 125.219,117.077 127.5,117.5C 127.5,113.5 127.5,109.5 127.5,105.5C 128.167,105.5 128.5,105.833 128.5,106.5C 128.826,113.601 128.16,120.601 126.5,127.5C 126.747,128.713 127.414,129.38 128.5,129.5C 132.167,129.5 135.833,129.5 139.5,129.5C 139.037,126.518 138.704,123.518 138.5,120.5C 138.811,119.522 139.478,118.855 140.5,118.5C 146.53,119.502 152.53,120.502 158.5,121.5C 157.908,124.127 157.575,126.794 157.5,129.5C 158.5,129.5 159.5,129.5 160.5,129.5C 163.833,129.5 167.167,129.5 170.5,129.5C 170.552,127.097 170.219,124.764 169.5,122.5C 171.167,122.5 172.833,122.5 174.5,122.5C 173.699,124.042 173.366,125.708 173.5,127.5C 179.417,127.742 184.751,125.742 189.5,121.5C 202.003,120.303 214.336,119.636 226.5,119.5C 228.621,119.675 230.621,119.341 232.5,118.5C 233.791,118.263 234.791,118.596 235.5,119.5C 232.526,122.138 229.526,124.805 226.5,127.5C 194.279,132.646 162.445,133.646 131,130.5C 108.374,130.547 86.2071,126.88 64.5,119.5C 63.8933,119.624 63.56,119.957 63.5,120.5C 62.6618,120.158 62.3284,119.492 62.5,118.5C 63.8333,118.5 65.1667,118.5 66.5,118.5C 70.3112,119.645 74.3112,119.812 78.5,119C 74.2648,114.026 70.9314,108.526 68.5,102.5C 68.56,101.957 68.8933,101.624 69.5,101.5C 79.7507,102.208 89.7507,103.208 99.5,104.5C 100.167,101.023 100.834,97.6893 101.5,94.5 Z"/></g>
<g><path style="opacity:0.95" fill="#ed1b63" d="M 102.5,110.5 C 104.998,112.666 107.998,113.666 111.5,113.5C 111.5,115.5 111.5,117.5 111.5,119.5C 110.448,119.351 109.448,119.517 108.5,120C 109.71,121.039 110.71,122.206 111.5,123.5C 109.629,123.141 108.129,122.141 107,120.5C 105.211,117.259 103.711,113.926 102.5,110.5 Z"/></g>
<g><path style="opacity:0.997" fill="#3a174e" d="M 79.5,135.5 C 79.56,134.957 79.8933,134.624 80.5,134.5C 87.0681,136.967 93.7347,139.134 100.5,141C 127.42,145.108 154.42,145.608 181.5,142.5C 182.416,142.543 183.083,142.876 183.5,143.5C 183.5,144.833 183.5,146.167 183.5,147.5C 180.772,148.205 177.939,148.872 175,149.5C 174.107,148.919 173.107,148.585 172,148.5C 147.649,152.65 123.649,151.983 100,146.5C 99.2352,146.57 98.7352,146.903 98.5,147.5C 91.6602,144.25 85.3269,140.25 79.5,135.5 Z"/></g>
<g><path style="opacity:0.951" fill="#ee1c65" d="M 196.5,147.5 C 198.604,147.201 200.604,147.534 202.5,148.5C 201.624,149.251 200.624,149.751 199.5,150C 202.146,150.497 204.813,150.664 207.5,150.5C 207.5,152.5 207.5,154.5 207.5,156.5C 198.827,156.334 190.16,156.5 181.5,157C 159.519,164.633 137.852,164.133 116.5,155.5C 116.833,155.5 117.167,155.5 117.5,155.5C 144.991,163.437 171.324,160.77 196.5,147.5 Z"/></g>
<g><path style="opacity:1" fill="#37f9f8" d="M 62.5,118.5 C 62.3284,119.492 62.6618,120.158 63.5,120.5C 68.204,126.205 73.5374,131.205 79.5,135.5C 85.3269,140.25 91.6602,144.25 98.5,147.5C 104.591,150.968 110.924,153.634 117.5,155.5C 117.167,155.5 116.833,155.5 116.5,155.5C 110.5,155.5 104.5,155.5 98.5,155.5C 98.8076,153.076 98.4742,150.743 97.5,148.5C 86.8784,143.371 77.2118,136.871 68.5,129C 59.8397,128.5 51.1731,128.334 42.5,128.5C 42.5,126.5 42.5,124.5 42.5,122.5C 48.8421,122.666 55.1754,122.5 61.5,122C 57.4465,118.278 57.7798,117.111 62.5,118.5 Z"/></g>
<g><path style="opacity:0.922" fill="#11fdfa" d="M 54.5,150.5 C 56.5,150.5 58.5,150.5 60.5,150.5C 60.5,152.5 60.5,154.5 60.5,156.5C 58.5,156.5 56.5,156.5 54.5,156.5C 54.5,154.5 54.5,152.5 54.5,150.5 Z"/></g>
<g><path style="opacity:1" fill="#441959" d="M 98.5,147.5 C 98.7352,146.903 99.2352,146.57 100,146.5C 123.649,151.983 147.649,152.65 172,148.5C 173.107,148.585 174.107,148.919 175,149.5C 177.939,148.872 180.772,148.205 183.5,147.5C 187.833,147.5 192.167,147.5 196.5,147.5C 171.324,160.77 144.991,163.437 117.5,155.5C 110.924,153.634 104.591,150.968 98.5,147.5 Z"/></g>
<g><path style="opacity:0.926" fill="#10fdfa" d="M 243.5,153.5 C 245.5,153.5 247.5,153.5 249.5,153.5C 249.5,155.5 249.5,157.5 249.5,159.5C 247.5,159.5 245.5,159.5 243.5,159.5C 243.5,157.5 243.5,155.5 243.5,153.5 Z"/></g>
<g><path style="opacity:0.996" fill="#f21c64" d="M 194.5,160.5 C 196.5,160.5 198.5,160.5 200.5,160.5C 200.5,162.5 200.5,164.5 200.5,166.5C 198.5,166.5 196.5,166.5 194.5,166.5C 194.5,164.5 194.5,162.5 194.5,160.5 Z"/></g>
<g><path style="opacity:0.976" fill="#12fefb" d="M 1.5,161.5 C 3.5,161.5 5.5,161.5 7.5,161.5C 7.5,163.5 7.5,165.5 7.5,167.5C 5.5,167.5 3.5,167.5 1.5,167.5C 1.5,165.5 1.5,163.5 1.5,161.5 Z"/></g>
<g><path style="opacity:0.96" fill="#15fdfb" d="M 88.5,168.5 C 76.4954,168.333 64.4954,168.5 52.5,169C 50.9473,171.14 49.9473,170.973 49.5,168.5C 52.2869,167.523 55.2869,167.19 58.5,167.5C 58.5,165.833 58.5,164.167 58.5,162.5C 67.1667,162.5 75.8333,162.5 84.5,162.5C 84.5,164.167 84.5,165.833 84.5,167.5C 86.099,167.232 87.4324,167.566 88.5,168.5 Z"/></g>
<g><path style="opacity:0.757" fill="#f21b64" d="M 289.5,164.5 C 291.5,164.5 293.5,164.5 295.5,164.5C 295.5,166.5 295.5,168.5 295.5,170.5C 293.5,170.5 291.5,170.5 289.5,170.5C 289.5,168.5 289.5,166.5 289.5,164.5 Z"/></g>
<g><path style="opacity:0.931" fill="#14fcfa" d="M 276.5,168.5 C 267.827,168.334 259.16,168.5 250.5,169C 249.238,170.927 248.238,170.76 247.5,168.5C 249.607,167.532 251.941,167.198 254.5,167.5C 254.5,166.5 254.5,165.5 254.5,164.5C 256.5,164.5 258.5,164.5 260.5,164.5C 260.5,165.5 260.5,166.5 260.5,167.5C 266.026,167.179 271.36,167.512 276.5,168.5 Z"/></g>
<g><path style="opacity:0.794" fill="#15f1ef" d="M 105.5,168.5 C 100.743,168.004 96.243,168.67 92,170.5C 90.9701,170.164 90.4701,169.497 90.5,168.5C 95.5999,167.2 100.6,167.2 105.5,168.5 Z"/></g>
<g><path style="opacity:0.72" fill="#15faf9" d="M 127.5,168.5 C 120.276,168.636 113.276,168.636 106.5,168.5C 113.5,167.167 120.5,167.167 127.5,168.5 Z"/></g>
<g><path style="opacity:0.788" fill="#18f7f6" d="M 195.5,168.5 C 178.83,168.333 162.163,168.5 145.5,169C 141.388,170.779 138.222,173.612 136,177.5C 135.487,176.473 134.987,175.473 134.5,174.5C 137.003,172.167 139.669,170.001 142.5,168C 160.338,167.171 178.005,167.338 195.5,168.5 Z"/></g>
<g><path style="opacity:0.797" fill="#15f4f3" d="M 218.5,168.5 C 212.824,168.334 207.157,168.501 201.5,169C 200.5,169.5 199.5,170 198.5,170.5C 197.702,170.043 197.369,169.376 197.5,168.5C 204.5,167.167 211.5,167.167 218.5,168.5 Z"/></g>
<g><path style="opacity:0.844" fill="#16f5f3" d="M 245.5,168.5 C 237.296,167.909 229.296,168.576 221.5,170.5C 220.478,170.145 219.811,169.478 219.5,168.5C 228.265,167.185 236.932,167.185 245.5,168.5 Z"/></g>
<g><path style="opacity:0.999" fill="#1a1f2a" d="M 47.5,168.5 C 48.1667,168.5 48.8333,168.5 49.5,168.5C 49.9473,170.973 50.9473,171.14 52.5,169C 64.4954,168.5 76.4954,168.333 88.5,168.5C 89.1667,168.5 89.8333,168.5 90.5,168.5C 90.4701,169.497 90.9701,170.164 92,170.5C 96.243,168.67 100.743,168.004 105.5,168.5C 105.833,168.5 106.167,168.5 106.5,168.5C 113.276,168.636 120.276,168.636 127.5,168.5C 130.427,169.757 132.761,171.757 134.5,174.5C 134.987,175.473 135.487,176.473 136,177.5C 138.222,173.612 141.388,170.779 145.5,169C 162.163,168.5 178.83,168.333 195.5,168.5C 196.167,168.5 196.833,168.5 197.5,168.5C 197.369,169.376 197.702,170.043 198.5,170.5C 199.5,170 200.5,169.5 201.5,169C 207.157,168.501 212.824,168.334 218.5,168.5C 218.833,168.5 219.167,168.5 219.5,168.5C 219.811,169.478 220.478,170.145 221.5,170.5C 229.296,168.576 237.296,167.909 245.5,168.5C 246.167,168.5 246.833,168.5 247.5,168.5C 248.238,170.76 249.238,170.927 250.5,169C 259.16,168.5 267.827,168.334 276.5,168.5C 278.749,169.08 280.415,170.413 281.5,172.5C 281.5,173.5 281.5,174.5 281.5,175.5C 280.5,175.5 279.5,175.5 278.5,175.5C 278.5,174.167 278.5,172.833 278.5,171.5C 269.167,171.5 259.833,171.5 250.5,171.5C 250.649,172.552 250.483,173.552 250,174.5C 249.097,173.299 247.931,172.465 246.5,172C 242.5,171.833 238.5,171.667 234.5,171.5C 230.075,171.537 225.909,172.204 222,173.5C 221.25,172.874 220.416,172.374 219.5,172C 213.167,171.333 206.833,171.333 200.5,172C 199.167,174 197.833,174 196.5,172C 179.167,171.333 161.833,171.333 144.5,172C 140.26,174.334 137.927,177.834 137.5,182.5C 137.705,179.014 136.371,178.014 133.5,179.5C 132.866,176.357 131.2,173.857 128.5,172C 118.944,171.84 109.444,171.674 100,171.5C 95.6119,170.934 92.6119,172.601 91,176.5C 90.5065,174.866 90.3398,173.199 90.5,171.5C 77.8289,171.333 65.1623,171.5 52.5,172C 51.344,173.615 50.0107,173.615 48.5,172C 40.5069,171.5 32.5069,171.334 24.5,171.5C 23.0685,177.422 22.0685,183.422 21.5,189.5C 20.5,189.5 19.5,189.5 18.5,189.5C 19.7716,183.54 20.9383,177.54 22,171.5C 22.8333,170.667 23.6667,169.833 24.5,169C 32.1594,168.5 39.8261,168.334 47.5,168.5 Z"/></g>
<g><path style="opacity:0.996" fill="#e7e5e9" d="M 278.5,175.5 C 277.5,175.5 276.5,175.5 275.5,175.5C 268.018,174.508 260.352,174.175 252.5,174.5C 252.425,177.206 252.092,179.873 251.5,182.5C 259.167,182.5 266.833,182.5 274.5,182.5C 274.5,181.5 274.5,180.5 274.5,179.5C 275.5,179.5 276.5,179.5 277.5,179.5C 275.959,186.411 274.959,193.411 274.5,200.5C 273.5,200.5 272.5,200.5 271.5,200.5C 271.5,199.5 271.5,198.5 271.5,197.5C 272.404,196.791 272.737,195.791 272.5,194.5C 267.381,195.103 262.715,194.436 258.5,192.5C 263.5,192.5 268.5,192.5 273.5,192.5C 273.5,190.167 273.5,187.833 273.5,185.5C 265.833,185.5 258.167,185.5 250.5,185.5C 250.167,188.167 249.833,190.833 249.5,193.5C 248.674,197.136 248.008,200.803 247.5,204.5C 252.5,204.5 257.5,204.5 262.5,204.5C 265.962,205.482 269.629,205.815 273.5,205.5C 260.677,206.495 247.677,206.829 234.5,206.5C 235.244,202.881 235.577,199.215 235.5,195.5C 234.5,195.5 233.5,195.5 232.5,195.5C 231.833,199.167 231.167,202.833 230.5,206.5C 218.918,206.048 207.251,206.048 195.5,206.5C 193.827,205.657 192.66,204.324 192,202.5C 191.634,196.825 191.8,191.159 192.5,185.5C 190.533,185.261 188.699,185.594 187,186.5C 186.217,193.199 185.217,199.865 184,206.5C 179.667,207.833 175.333,207.833 171,206.5C 171.175,199.445 172.008,192.445 173.5,185.5C 170.753,185.187 168.086,185.52 165.5,186.5C 166.8,191.521 166.633,196.521 165,201.5C 163.833,204 162,205.833 159.5,207C 151.5,207.667 143.5,207.667 135.5,207C 134.565,204.619 134.232,202.119 134.5,199.5C 135.309,197.708 135.809,195.708 136,193.5C 136.925,192.953 137.758,192.287 138.5,191.5C 137.593,188.579 137.26,185.579 137.5,182.5C 137.927,177.834 140.26,174.334 144.5,172C 161.833,171.333 179.167,171.333 196.5,172C 197.833,174 199.167,174 200.5,172C 206.833,171.333 213.167,171.333 219.5,172C 220.416,172.374 221.25,172.874 222,173.5C 225.909,172.204 230.075,171.537 234.5,171.5C 238.5,171.667 242.5,171.833 246.5,172C 247.931,172.465 249.097,173.299 250,174.5C 250.483,173.552 250.649,172.552 250.5,171.5C 259.833,171.5 269.167,171.5 278.5,171.5C 278.5,172.833 278.5,174.167 278.5,175.5 Z"/></g>
<g><path style="opacity:1" fill="#e8e5e9" d="M 133.5,179.5 C 132.499,185.503 131.499,191.503 130.5,197.5C 129.643,202.35 126.976,205.683 122.5,207.5C 121.167,207.5 119.833,207.5 118.5,207.5C 113.821,207.666 109.155,207.499 104.5,207C 103.5,205 102.5,205 101.5,207C 97.1794,207.499 92.8461,207.666 88.5,207.5C 86.5233,199.823 85.5233,199.823 85.5,207.5C 68.9915,207.83 52.6581,207.496 36.5,206.5C 36.7303,199.786 37.397,193.12 38.5,186.5C 37.5,186.5 36.5,186.5 35.5,186.5C 34.392,192.815 33.392,199.148 32.5,205.5C 30.777,206.8 28.6103,207.467 26,207.5C 23.8333,207.333 21.6667,207.167 19.5,207C 18.9781,206.439 18.6448,205.772 18.5,205C 19.2145,201.494 19.8811,197.994 20.5,194.5C 21.5,194.5 22.5,194.5 23.5,194.5C 22.5863,197.728 22.2529,201.061 22.5,204.5C 25.1194,204.768 27.6194,204.435 30,203.5C 30.7267,197.475 31.5601,191.475 32.5,185.5C 29.8333,185.5 27.1667,185.5 24.5,185.5C 24.5,186.833 24.5,188.167 24.5,189.5C 23.5,189.5 22.5,189.5 21.5,189.5C 22.0685,183.422 23.0685,177.422 24.5,171.5C 32.5069,171.334 40.5069,171.5 48.5,172C 50.0107,173.615 51.344,173.615 52.5,172C 65.1623,171.5 77.8289,171.333 90.5,171.5C 90.3398,173.199 90.5065,174.866 91,176.5C 92.6119,172.601 95.6119,170.934 100,171.5C 109.444,171.674 118.944,171.84 128.5,172C 131.2,173.857 132.866,176.357 133.5,179.5 Z"/></g>
<g><path style="opacity:0.989" fill="#13f9f7" d="M 47.5,168.5 C 39.8261,168.334 32.1594,168.5 24.5,169C 23.6667,169.833 22.8333,170.667 22,171.5C 20.9383,177.54 19.7716,183.54 18.5,189.5C 16.7179,188.28 14.7179,187.614 12.5,187.5C 12.5,185.167 12.5,182.833 12.5,180.5C 14.1992,180.66 15.8659,180.494 17.5,180C 12.8452,179.501 8.17853,179.334 3.5,179.5C 3.5,177.167 3.5,174.833 3.5,172.5C 8.51108,172.666 13.5111,172.499 18.5,172C 19.2567,170.488 20.2567,169.154 21.5,168C 30.3433,167.176 39.0099,167.343 47.5,168.5 Z"/></g>
<g><path style="opacity:0.827" fill="#fa187a" d="M 281.5,172.5 C 283.985,173.74 283.985,174.74 281.5,175.5C 281.5,174.5 281.5,173.5 281.5,172.5 Z"/></g>
<g><path style="opacity:1" fill="#1d1326" d="M 165.5,182.5 C 157.5,182.5 149.5,182.5 141.5,182.5C 141.5,181.5 141.5,180.5 141.5,179.5C 141.916,177.248 143.249,175.748 145.5,175C 152.492,174.5 159.492,174.334 166.5,174.5C 166.806,177.385 166.473,180.052 165.5,182.5 Z"/></g>
<g><path style="opacity:1" fill="#1b1124" d="M 193.5,182.5 C 185.5,182.5 177.5,182.5 169.5,182.5C 169.5,181.167 169.5,179.833 169.5,178.5C 169.5,177.167 169.5,175.833 169.5,174.5C 177.833,174.5 186.167,174.5 194.5,174.5C 194.167,177.167 193.833,179.833 193.5,182.5 Z"/></g>
<g><path style="opacity:1" fill="#241b2d" d="M 79.5,174.5 C 82.1667,174.5 84.8333,174.5 87.5,174.5C 87.2962,177.518 86.9629,180.518 86.5,183.5C 83.8333,183.5 81.1667,183.5 78.5,183.5C 78.9629,180.518 79.2962,177.518 79.5,174.5 Z"/></g>
<g><path style="opacity:1" fill="#241b2d" d="M 94.5,174.5 C 97.8499,174.335 101.183,174.502 104.5,175C 102.5,177.667 100.5,180.333 98.5,183C 95.4459,183.821 92.4459,183.655 89.5,182.5C 91.22,179.798 92.8866,177.132 94.5,174.5 Z"/></g>
<g><path style="opacity:1" fill="#1c1325" d="M 224.5,174.5 C 231.841,174.334 239.174,174.5 246.5,175C 249.041,176.848 250.041,179.348 249.5,182.5C 241.167,182.5 232.833,182.5 224.5,182.5C 224.5,179.833 224.5,177.167 224.5,174.5 Z"/></g>
<g><path style="opacity:1" fill="#22192a" d="M 54.5,174.5 C 61.8333,174.5 69.1667,174.5 76.5,174.5C 76.7771,177.448 76.4438,180.281 75.5,183C 68.1742,183.5 60.8409,183.666 53.5,183.5C 53.3677,180.43 53.701,177.43 54.5,174.5 Z"/></g>
<g><path style="opacity:0.995" fill="#1b1224" d="M 275.5,175.5 C 274.566,176.568 274.232,177.901 274.5,179.5C 274.5,180.5 274.5,181.5 274.5,182.5C 266.833,182.5 259.167,182.5 251.5,182.5C 252.092,179.873 252.425,177.206 252.5,174.5C 260.352,174.175 268.018,174.508 275.5,175.5 Z"/></g>
<g><path style="opacity:1" fill="#201928" d="M 26.5,174.5 C 33.8409,174.334 41.1742,174.5 48.5,175C 50.3137,177.481 50.9804,180.315 50.5,183.5C 42.1667,183.5 33.8333,183.5 25.5,183.5C 25.9629,180.518 26.2962,177.518 26.5,174.5 Z"/></g>
<g><path style="opacity:1" fill="#261b2f" d="M 109.5,174.5 C 115.842,174.334 122.175,174.5 128.5,175C 130.314,177.481 130.98,180.315 130.5,183.5C 122.167,183.5 113.833,183.5 105.5,183.5C 105.054,179.64 106.387,176.64 109.5,174.5 Z"/></g>
<g><path style="opacity:1" fill="#1c1226" d="M 200.5,174.5 C 206.509,174.334 212.509,174.501 218.5,175C 221.041,176.848 222.041,179.348 221.5,182.5C 213.167,182.5 204.833,182.5 196.5,182.5C 196.776,179.281 198.109,176.615 200.5,174.5 Z"/></g>
<g><path style="opacity:1" fill="#ee1b63" d="M 280.5,179.5 C 284.596,181.213 288.93,181.879 293.5,181.5C 293.5,183.5 293.5,185.5 293.5,187.5C 289.486,187.334 285.486,187.501 281.5,188C 280.62,189.356 280.286,190.856 280.5,192.5C 281.5,192.5 282.5,192.5 283.5,192.5C 283.5,194.5 283.5,196.5 283.5,198.5C 281.142,198.253 279.142,198.919 277.5,200.5C 277.849,193.393 278.849,186.393 280.5,179.5 Z"/></g>
<g><path style="opacity:1" fill="#7c7483" d="M 141.5,179.5 C 141.5,180.5 141.5,181.5 141.5,182.5C 149.5,182.5 157.5,182.5 165.5,182.5C 157.35,183.493 149.017,183.826 140.5,183.5C 140.232,181.901 140.566,180.568 141.5,179.5 Z"/></g>
<g><path style="opacity:1" fill="#7a7180" d="M 169.5,178.5 C 169.5,179.833 169.5,181.167 169.5,182.5C 177.5,182.5 185.5,182.5 193.5,182.5C 185.35,183.493 177.017,183.826 168.5,183.5C 168.216,181.585 168.549,179.919 169.5,178.5 Z"/></g>
<g><path style="opacity:1" fill="#382544" d="M 101.5,182.5 C 102.097,182.735 102.43,183.235 102.5,184C 101.411,188.112 100.578,192.279 100,196.5C 98.8362,194.351 97.6695,192.185 96.5,190C 98.3887,187.618 100.055,185.118 101.5,182.5 Z"/></g>
<g><path style="opacity:1" fill="#30183f" d="M 223.5,185.5 C 231.5,185.5 239.5,185.5 247.5,185.5C 246.833,191.833 246.167,198.167 245.5,204.5C 242.833,204.5 240.167,204.5 237.5,204.5C 238.167,200.5 238.833,196.5 239.5,192.5C 236.223,192.216 233.057,192.549 230,193.5C 229.281,197.145 228.781,200.812 228.5,204.5C 225.833,204.5 223.167,204.5 220.5,204.5C 221.177,198.105 222.177,191.772 223.5,185.5 Z"/></g>
<g><path style="opacity:1" fill="#2d1a3a" d="M 258.5,192.5 C 258.167,192.5 257.833,192.5 257.5,192.5C 254.721,192.279 252.054,192.612 249.5,193.5C 249.833,190.833 250.167,188.167 250.5,185.5C 258.167,185.5 265.833,185.5 273.5,185.5C 273.5,187.833 273.5,190.167 273.5,192.5C 268.5,192.5 263.5,192.5 258.5,192.5 Z"/></g>
<g><path style="opacity:1" fill="#2b1938" d="M 59.5,192.5 C 56.8333,192.5 54.1667,192.5 51.5,192.5C 51.9926,190.194 52.3259,187.861 52.5,185.5C 60.1667,185.5 67.8333,185.5 75.5,185.5C 75.0074,187.806 74.6741,190.139 74.5,192.5C 69.5,192.5 64.5,192.5 59.5,192.5 Z"/></g>
<g><path style="opacity:1" fill="#351b44" d="M 77.5,185.5 C 83.8421,185.334 90.1754,185.5 96.5,186C 95.3128,187.019 94.3128,188.186 93.5,189.5C 95.9332,194.308 98.2665,199.141 100.5,204C 97.1177,204.824 93.7844,204.657 90.5,203.5C 88.6511,199.802 86.8178,196.136 85,192.5C 83.9847,196.44 83.4847,200.44 83.5,204.5C 80.4281,204.817 77.4281,204.484 74.5,203.5C 75.9317,197.577 76.9317,191.577 77.5,185.5 Z"/></g>
<g><path style="opacity:0.763" fill="#28eaee" d="M 17.5,194.5 C 17.3639,197.35 17.0305,200.183 16.5,203C 16.4823,205.442 17.149,207.608 18.5,209.5C 16.8712,208.375 15.3712,207.041 14,205.5C 13.9379,201.852 14.1046,198.185 14.5,194.5C 15.5,194.5 16.5,194.5 17.5,194.5 Z"/></g>
<g><path style="opacity:1" fill="#351b45" d="M 23.5,194.5 C 25.1667,194.5 26.8333,194.5 28.5,194.5C 28.5,192.833 28.5,191.167 28.5,189.5C 27.1667,189.5 25.8333,189.5 24.5,189.5C 24.5,188.167 24.5,186.833 24.5,185.5C 27.1667,185.5 29.8333,185.5 32.5,185.5C 31.5601,191.475 30.7267,197.475 30,203.5C 27.6194,204.435 25.1194,204.768 22.5,204.5C 22.2529,201.061 22.5863,197.728 23.5,194.5 Z"/></g>
<g><path style="opacity:1" fill="#371e47" d="M 41.5,185.5 C 44.1667,185.5 46.8333,185.5 49.5,185.5C 48.7243,191.821 48.0576,198.154 47.5,204.5C 44.4281,204.817 41.4281,204.484 38.5,203.5C 39.757,197.548 40.757,191.548 41.5,185.5 Z"/></g>
<g><path style="opacity:1" fill="#94879c" d="M 257.5,192.5 C 257.833,192.5 258.167,192.5 258.5,192.5C 262.715,194.436 267.381,195.103 272.5,194.5C 272.737,195.791 272.404,196.791 271.5,197.5C 267.285,195.564 262.619,194.897 257.5,195.5C 257.5,194.5 257.5,193.5 257.5,192.5 Z"/></g>
<g><path style="opacity:1" fill="#362143" d="M 137.5,182.5 C 137.26,185.579 137.593,188.579 138.5,191.5C 137.758,192.287 136.925,192.953 136,193.5C 135.809,195.708 135.309,197.708 134.5,199.5C 133.817,197.824 132.483,197.157 130.5,197.5C 131.499,191.503 132.499,185.503 133.5,179.5C 136.371,178.014 137.705,179.014 137.5,182.5 Z"/></g>
<g><path style="opacity:1" fill="#341945" d="M 140.5,185.5 C 147.508,185.334 154.508,185.5 161.5,186C 163.357,187.182 164.357,188.849 164.5,191C 164.505,196.055 162.838,200.388 159.5,204C 152.174,204.5 144.841,204.666 137.5,204.5C 137.704,201.482 138.037,198.482 138.5,195.5C 144.176,195.666 149.843,195.499 155.5,195C 155.957,194.586 156.291,194.086 156.5,193.5C 152.204,192.672 147.871,192.172 143.5,192C 140.855,190.713 139.855,188.547 140.5,185.5 Z"/></g>
<g><path style="opacity:1" fill="#401e51" d="M 195.5,206.5 C 202.5,207.167 209.5,207.833 216.5,208.5C 209.254,209.464 201.92,209.797 194.5,209.5C 193.833,209.5 193.5,209.167 193.5,208.5C 191.107,206.264 189.273,203.597 188,200.5C 187.517,201.448 187.351,202.448 187.5,203.5C 186.971,205.583 185.971,207.417 184.5,209C 179.845,209.499 175.179,209.666 170.5,209.5C 169.109,207.079 168.275,204.412 168,201.5C 167.487,202.527 166.987,203.527 166.5,204.5C 164.66,206.168 162.66,207.668 160.5,209C 151.84,209.5 143.173,209.666 134.5,209.5C 134.167,209.5 133.833,209.5 133.5,209.5C 132.489,207.628 131.655,205.628 131,203.5C 129.489,204.564 129.323,205.897 130.5,207.5C 127.833,207.5 125.167,207.5 122.5,207.5C 126.976,205.683 129.643,202.35 130.5,197.5C 132.483,197.157 133.817,197.824 134.5,199.5C 134.232,202.119 134.565,204.619 135.5,207C 143.5,207.667 151.5,207.667 159.5,207C 162,205.833 163.833,204 165,201.5C 166.633,196.521 166.8,191.521 165.5,186.5C 168.086,185.52 170.753,185.187 173.5,185.5C 172.008,192.445 171.175,199.445 171,206.5C 175.333,207.833 179.667,207.833 184,206.5C 185.217,199.865 186.217,193.199 187,186.5C 188.699,185.594 190.533,185.261 192.5,185.5C 191.8,191.159 191.634,196.825 192,202.5C 192.66,204.324 193.827,205.657 195.5,206.5 Z"/></g>
<g><path style="opacity:1" fill="#351c45" d="M 176.5,185.5 C 179.167,185.5 181.833,185.5 184.5,185.5C 183.744,191.883 182.744,198.216 181.5,204.5C 178.833,204.5 176.167,204.5 173.5,204.5C 174.392,198.147 175.392,191.814 176.5,185.5 Z"/></g>
<g><path style="opacity:0.991" fill="#391a4b" d="M 257.5,192.5 C 257.5,193.5 257.5,194.5 257.5,195.5C 262.619,194.897 267.285,195.564 271.5,197.5C 271.5,198.5 271.5,199.5 271.5,200.5C 268.5,200.5 265.5,200.5 262.5,200.5C 262.5,201.833 262.5,203.167 262.5,204.5C 257.5,204.5 252.5,204.5 247.5,204.5C 248.008,200.803 248.674,197.136 249.5,193.5C 252.054,192.612 254.721,192.279 257.5,192.5 Z"/></g>
<g><path style="opacity:1" fill="#3d2147" d="M 277.5,179.5 C 278.5,179.5 279.5,179.5 280.5,179.5C 278.849,186.393 277.849,193.393 277.5,200.5C 276.5,200.5 275.5,200.5 274.5,200.5C 274.959,193.411 275.959,186.411 277.5,179.5 Z"/></g>
<g><path style="opacity:0.922" fill="#12fdfa" d="M 3.5,197.5 C 5.5,197.5 7.5,197.5 9.5,197.5C 9.5,199.5 9.5,201.5 9.5,203.5C 7.5,203.5 5.5,203.5 3.5,203.5C 3.5,201.5 3.5,199.5 3.5,197.5 Z"/></g>
<g><path style="opacity:1" fill="#391c4a" d="M 195.5,185.5 C 198.167,185.5 200.833,185.5 203.5,185.5C 202.793,188.786 202.46,192.119 202.5,195.5C 205.5,195.5 208.5,195.5 211.5,195.5C 212.051,192.193 212.384,188.86 212.5,185.5C 215.167,185.5 217.833,185.5 220.5,185.5C 220.146,190.957 219.146,196.29 217.5,201.5C 216.5,202.333 215.5,203.167 214.5,204C 208.5,204.667 202.5,204.667 196.5,204C 195.667,203.167 194.833,202.333 194,201.5C 194.034,196.149 194.534,190.816 195.5,185.5 Z"/></g>
<g><path style="opacity:1" fill="#301e3d" d="M 206.5,185.5 C 207.5,185.5 208.5,185.5 209.5,185.5C 209.5,187.833 209.5,190.167 209.5,192.5C 208.167,192.5 206.833,192.5 205.5,192.5C 205.448,190.097 205.781,187.764 206.5,185.5 Z"/></g>
<g><path style="opacity:1" fill="#371949" d="M 104.5,185.5 C 107.247,185.187 109.914,185.52 112.5,186.5C 111.593,189.421 111.26,192.421 111.5,195.5C 114.5,195.5 117.5,195.5 120.5,195.5C 120.616,192.14 120.949,188.807 121.5,185.5C 124.167,185.5 126.833,185.5 129.5,185.5C 130.473,202.876 122.473,209.042 105.5,204C 104.667,203.167 103.833,202.333 103,201.5C 102.947,196.139 103.447,190.805 104.5,185.5 Z"/></g>
<g><path style="opacity:1" fill="#33203f" d="M 115.5,185.5 C 116.5,185.5 117.5,185.5 118.5,185.5C 118.682,187.591 118.348,189.591 117.5,191.5C 116.675,192.386 115.675,192.719 114.5,192.5C 114.298,190.05 114.631,187.717 115.5,185.5 Z"/></g>
<g><path style="opacity:1" fill="#3c1e4e" d="M 36.5,206.5 C 35.2921,205.766 33.9587,205.433 32.5,205.5C 33.392,199.148 34.392,192.815 35.5,186.5C 36.5,186.5 37.5,186.5 38.5,186.5C 37.397,193.12 36.7303,199.786 36.5,206.5 Z"/></g>
<g><path style="opacity:1" fill="#3c1951" d="M 51.5,192.5 C 54.1667,192.5 56.8333,192.5 59.5,192.5C 59.5,193.5 59.5,194.5 59.5,195.5C 64.1667,195.5 68.8333,195.5 73.5,195.5C 73.0371,198.482 72.7038,201.482 72.5,204.5C 64.8333,204.5 57.1667,204.5 49.5,204.5C 49.5407,200.384 50.2073,196.384 51.5,192.5 Z"/></g>
<g><path style="opacity:1" fill="#90a0b9" d="M 170.5,209.5 C 169.5,208.833 168.5,208.167 167.5,207.5C 166.89,206.609 166.557,205.609 166.5,204.5C 166.987,203.527 167.487,202.527 168,201.5C 168.275,204.412 169.109,207.079 170.5,209.5 Z"/></g>
<g><path style="opacity:0.878" fill="#65e5e9" d="M 193.5,208.5 C 191.589,207.925 189.922,206.925 188.5,205.5C 188.672,204.508 188.338,203.842 187.5,203.5C 187.351,202.448 187.517,201.448 188,200.5C 189.273,203.597 191.107,206.264 193.5,208.5 Z"/></g>
<g><path style="opacity:1" fill="#4c1d66" d="M 17.5,194.5 C 18.5,194.5 19.5,194.5 20.5,194.5C 19.8811,197.994 19.2145,201.494 18.5,205C 18.6448,205.772 18.9781,206.439 19.5,207C 21.6667,207.167 23.8333,207.333 26,207.5C 28.6103,207.467 30.777,206.8 32.5,205.5C 33.9587,205.433 35.2921,205.766 36.5,206.5C 52.6581,207.496 68.9915,207.83 85.5,207.5C 85.5233,199.823 86.5233,199.823 88.5,207.5C 92.8461,207.666 97.1794,207.499 101.5,207C 102.5,205 103.5,205 104.5,207C 109.155,207.499 113.821,207.666 118.5,207.5C 118.5,208.167 118.5,208.833 118.5,209.5C 107.412,208.894 96.412,208.894 85.5,209.5C 63.0819,209.27 40.7486,209.27 18.5,209.5C 17.149,207.608 16.4823,205.442 16.5,203C 17.0305,200.183 17.3639,197.35 17.5,194.5 Z"/></g>
<g><path style="opacity:0.153" fill="#83e3e7" d="M 133.5,209.5 C 132.5,208.833 131.5,208.167 130.5,207.5C 129.323,205.897 129.489,204.564 131,203.5C 131.655,205.628 132.489,207.628 133.5,209.5 Z"/></g>
<g><path style="opacity:1" fill="#5f3475" d="M 273.5,205.5 C 274.167,205.5 274.833,205.5 275.5,205.5C 275.489,207.017 274.823,208.184 273.5,209C 254.393,209.521 235.393,209.355 216.5,208.5C 209.5,207.833 202.5,207.167 195.5,206.5C 207.251,206.048 218.918,206.048 230.5,206.5C 231.167,202.833 231.833,199.167 232.5,195.5C 233.5,195.5 234.5,195.5 235.5,195.5C 235.577,199.215 235.244,202.881 234.5,206.5C 247.677,206.829 260.677,206.495 273.5,205.5 Z"/></g>
<g><path style="opacity:0.811" fill="#d11e66" d="M 85.5,209.5 C 69.3419,210.496 53.0085,210.83 36.5,210.5C 31.7501,212.481 26.7501,212.981 21.5,212C 20.0577,211.623 19.0577,210.79 18.5,209.5C 40.7486,209.27 63.0819,209.27 85.5,209.5 Z"/></g>
<g><path style="opacity:1" fill="#ea2469" d="M 166.5,204.5 C 166.557,205.609 166.89,206.609 167.5,207.5C 165.315,209.762 162.648,211.262 159.5,212C 152.833,212.667 146.167,212.667 139.5,212C 137.347,211.901 135.681,211.067 134.5,209.5C 143.173,209.666 151.84,209.5 160.5,209C 162.66,207.668 164.66,206.168 166.5,204.5 Z"/></g>
<g><path style="opacity:0.962" fill="#e31b65" d="M 187.5,203.5 C 188.338,203.842 188.672,204.508 188.5,205.5C 188.822,207.722 188.155,209.556 186.5,211C 181.5,211.667 176.5,211.667 171.5,211C 170.944,210.617 170.611,210.117 170.5,209.5C 175.179,209.666 179.845,209.499 184.5,209C 185.971,207.417 186.971,205.583 187.5,203.5 Z"/></g>
<g><path style="opacity:0.987" fill="#ec1c66" d="M 275.5,205.5 C 278.017,207.077 278.017,208.91 275.5,211C 271.848,211.499 268.182,211.665 264.5,211.5C 264.5,213.167 264.5,214.833 264.5,216.5C 255.833,216.5 247.167,216.5 238.5,216.5C 238.5,214.833 238.5,213.167 238.5,211.5C 227.802,211.185 217.136,211.185 206.5,211.5C 202.833,211.333 199.167,211.167 195.5,211C 194.944,210.617 194.611,210.117 194.5,209.5C 201.92,209.797 209.254,209.464 216.5,208.5C 235.393,209.355 254.393,209.521 273.5,209C 274.823,208.184 275.489,207.017 275.5,205.5 Z"/></g>
<g><path style="opacity:0.953" fill="#ee1d65" d="M 118.5,209.5 C 118.5,210.5 118.5,211.5 118.5,212.5C 111.123,211.937 103.79,211.937 96.5,212.5C 93.4205,212.68 90.5871,212.014 88,210.5C 87.5,211 87,211.5 86.5,212C 79.8417,212.5 73.175,212.666 66.5,212.5C 66.5,214.167 66.5,215.833 66.5,217.5C 57.5,217.5 48.5,217.5 39.5,217.5C 40.0907,214.325 39.0907,211.991 36.5,210.5C 53.0085,210.83 69.3419,210.496 85.5,209.5C 96.412,208.894 107.412,208.894 118.5,209.5 Z"/></g>
<g><path style="opacity:0.939" fill="#582674" d="M 109.5,219.5 C 109.795,221.735 109.461,223.735 108.5,225.5C 107.728,226.694 106.728,227.694 105.5,228.5C 103.5,228.5 101.5,228.5 99.5,228.5C 100.614,227.115 101.614,225.615 102.5,224C 102.272,223.601 101.938,223.435 101.5,223.5C 95.6078,221.578 93.2745,223.912 94.5,230.5C 92.7354,231.461 90.7354,231.795 88.5,231.5C 88.0577,228.657 87.0577,225.991 85.5,223.5C 85.8627,222.817 86.1961,222.15 86.5,221.5C 86.5,220.833 86.8333,220.5 87.5,220.5C 89.1765,219.817 89.8432,218.483 89.5,216.5C 94.7062,216.12 100.04,215.953 105.5,216C 107.35,216.69 108.684,217.856 109.5,219.5 Z M 98.5,225.5 C 98.573,227.027 97.9063,228.027 96.5,228.5C 96.2852,226.821 96.9519,225.821 98.5,225.5 Z"/></g>
<g><path style="opacity:0.915" fill="#5c2470" d="M 185.5,224.5 C 185.5,227.167 185.5,229.833 185.5,232.5C 184.292,231.766 182.959,231.433 181.5,231.5C 181.813,228.753 181.48,226.086 180.5,223.5C 179.702,223.957 179.369,224.624 179.5,225.5C 179.167,225.5 178.833,225.5 178.5,225.5C 176.784,225.371 175.117,225.038 173.5,224.5C 173.189,223.522 172.522,222.855 171.5,222.5C 169.814,223.857 168.148,225.19 166.5,226.5C 164.435,226.517 162.435,226.85 160.5,227.5C 162.451,224.214 164.785,221.214 167.5,218.5C 170.137,216.573 173.137,216.073 176.5,217C 178.836,220.474 181.836,222.974 185.5,224.5 Z"/></g>
<g><path style="opacity:0.487" fill="#15f8f9" d="M 89.5,216.5 C 89.8432,218.483 89.1765,219.817 87.5,220.5C 87.2291,218.62 87.8958,217.287 89.5,216.5 Z"/></g>
<g><path style="opacity:0.646" fill="#17f5f4" d="M 125.5,216.5 C 125.5,218.5 125.5,220.5 125.5,222.5C 124.799,226.727 123.966,231.06 123,235.5C 121.924,238.079 120.091,239.746 117.5,240.5C 121.79,234.958 123.624,228.625 123,221.5C 123.099,219.347 123.933,217.681 125.5,216.5 Z"/></g>
<g><path style="opacity:1" fill="#4d2367" d="M 79.5,218.5 C 79.4894,220.017 78.8228,221.184 77.5,222C 71.1818,224.443 67.0152,228.943 65,235.5C 64.5034,237.81 64.3367,240.143 64.5,242.5C 63.596,241.791 63.2627,240.791 63.5,239.5C 62.1667,239.5 60.8333,239.5 59.5,239.5C 59.5,238.167 59.5,236.833 59.5,235.5C 60.9544,229.254 63.9544,223.921 68.5,219.5C 72.1166,216.211 75.7833,215.878 79.5,218.5 Z"/></g>
<g><path style="opacity:0.867" fill="#f21c64" d="M 254.5,221.5 C 256.5,221.5 258.5,221.5 260.5,221.5C 260.5,223.5 260.5,225.5 260.5,227.5C 258.5,227.5 256.5,227.5 254.5,227.5C 254.5,225.5 254.5,223.5 254.5,221.5 Z"/></g>
<g><path style="opacity:0.66" fill="#22f3f3" d="M 86.5,221.5 C 86.1961,222.15 85.8627,222.817 85.5,223.5C 87.0577,225.991 88.0577,228.657 88.5,231.5C 88.5,232.5 88.5,233.5 88.5,234.5C 86.9885,239.867 87.3219,245.2 89.5,250.5C 89.5,250.833 89.5,251.167 89.5,251.5C 87.8762,251.64 86.7096,250.973 86,249.5C 85.5034,247.19 85.3367,244.857 85.5,242.5C 85.5,239.833 85.5,237.167 85.5,234.5C 85.821,233.183 86.1543,231.849 86.5,230.5C 86.2528,229.287 85.5862,228.62 84.5,228.5C 84.5,227.833 84.1667,227.5 83.5,227.5C 83.3398,225.801 83.5065,224.134 84,222.5C 84.6708,221.748 85.5041,221.414 86.5,221.5 Z"/></g>
<g><path style="opacity:0.999" fill="#51206e" d="M 130.5,218.5 C 129.979,222.481 129.646,226.481 129.5,230.5C 128.167,230.5 126.833,230.5 125.5,230.5C 125.5,227.833 125.5,225.167 125.5,222.5C 125.5,220.5 125.5,218.5 125.5,216.5C 127.909,215.202 129.575,215.869 130.5,218.5 Z"/></g>
<g><path style="opacity:0.637" fill="#eb1e65" d="M 101.5,223.5 C 100.833,223.833 100.167,224.167 99.5,224.5C 98.8333,224.5 98.5,224.833 98.5,225.5C 96.9519,225.821 96.2852,226.821 96.5,228.5C 96.1667,229.167 95.8333,229.833 95.5,230.5C 95.1667,230.5 94.8333,230.5 94.5,230.5C 93.2745,223.912 95.6078,221.578 101.5,223.5 Z"/></g>
<g><path style="opacity:0.896" fill="#f21a62" d="M 30.5,223.5 C 32.5,223.5 34.5,223.5 36.5,223.5C 36.5,225.5 36.5,227.5 36.5,229.5C 34.5,229.5 32.5,229.5 30.5,229.5C 30.5,227.5 30.5,225.5 30.5,223.5 Z"/></g>
<g><path style="opacity:0.949" fill="#4e1f64" d="M 233.5,226.5 C 230.815,228.259 227.815,229.259 224.5,229.5C 224.5,230.833 224.5,232.167 224.5,233.5C 223.221,232.032 221.554,231.365 219.5,231.5C 218.85,229.565 218.517,227.565 218.5,225.5C 221.319,225.131 224.152,224.798 227,224.5C 229.544,224.336 231.71,225.003 233.5,226.5 Z"/></g>
<g><path style="opacity:0.773" fill="#32d4e0" d="M 101.5,223.5 C 101.938,223.435 102.272,223.601 102.5,224C 101.614,225.615 100.614,227.115 99.5,228.5C 98.2058,229.29 97.0391,230.29 96,231.5C 95.6012,231.272 95.4346,230.938 95.5,230.5C 95.8333,229.833 96.1667,229.167 96.5,228.5C 97.9063,228.027 98.573,227.027 98.5,225.5C 99.1667,225.5 99.5,225.167 99.5,224.5C 100.167,224.167 100.833,223.833 101.5,223.5 Z"/></g>
<g><path style="opacity:0.696" fill="#19f3f2" d="M 207.5,224.5 C 207.5,228.167 207.5,231.833 207.5,235.5C 207.055,240.101 207.722,244.435 209.5,248.5C 209.5,248.833 209.5,249.167 209.5,249.5C 206.962,249.169 205.296,247.836 204.5,245.5C 204.704,242.482 205.037,239.482 205.5,236.5C 205.5,235.5 205.5,234.5 205.5,233.5C 205.5,230.833 205.5,228.167 205.5,225.5C 206.167,225.167 206.833,224.833 207.5,224.5 Z"/></g>
<g><path style="opacity:0.964" fill="#ed1963" d="M 117.5,219.5 C 118.497,219.47 119.164,219.97 119.5,221C 118.983,223.077 118.316,225.077 117.5,227C 118.448,227.483 119.448,227.649 120.5,227.5C 120.5,228.833 120.5,230.167 120.5,231.5C 119.167,231.5 117.833,231.5 116.5,231.5C 116.5,234.5 116.5,237.5 116.5,240.5C 115.599,239.71 114.932,238.71 114.5,237.5C 114.23,231.256 115.23,225.256 117.5,219.5 Z"/></g>
<g><path style="opacity:0.996" fill="#11fdfa" d="M 151.5,225.5 C 152.833,225.5 154.167,225.5 155.5,225.5C 155.5,226.833 155.5,228.167 155.5,229.5C 154.167,229.5 152.833,229.5 151.5,229.5C 151.5,228.167 151.5,226.833 151.5,225.5 Z"/></g>
<g><path style="opacity:0.877" fill="#f21963" d="M 83.5,227.5 C 84.1667,227.5 84.5,227.833 84.5,228.5C 84.7148,230.179 84.0481,231.179 82.5,231.5C 81.5084,231.672 80.8417,231.338 80.5,230.5C 80.5,229.5 80.5,228.5 80.5,227.5C 81.5,227.5 82.5,227.5 83.5,227.5 Z"/></g>
<g><path style="opacity:0.676" fill="#e21f64" d="M 130.5,218.5 C 131.748,219.334 132.415,220.667 132.5,222.5C 132.328,224.548 131.995,226.548 131.5,228.5C 130.322,231.523 130.322,234.523 131.5,237.5C 131.5,238.167 131.5,238.833 131.5,239.5C 130.167,241.167 130.167,242.833 131.5,244.5C 130.766,245.878 130.099,247.378 129.5,249C 128.251,249.74 127.251,249.573 126.5,248.5C 126.5,248.167 126.5,247.833 126.5,247.5C 127.832,246.17 128.665,244.503 129,242.5C 129.499,238.514 129.666,234.514 129.5,230.5C 129.646,226.481 129.979,222.481 130.5,218.5 Z"/></g>
<g><path style="opacity:0.737" fill="#ec236c" d="M 233.5,226.5 C 234.234,227.708 234.567,229.041 234.5,230.5C 231.266,230.205 228.266,230.871 225.5,232.5C 225.624,233.107 225.957,233.44 226.5,233.5C 225.833,234.833 225.167,234.833 224.5,233.5C 224.5,232.167 224.5,230.833 224.5,229.5C 227.815,229.259 230.815,228.259 233.5,226.5 Z"/></g>
<g><path style="opacity:0.749" fill="#1cf7f6" d="M 68.5,219.5 C 63.9544,223.921 60.9544,229.254 59.5,235.5C 57.8024,240.408 59.1358,244.408 63.5,247.5C 63.5,248.167 63.5,248.833 63.5,249.5C 60.2356,248.676 56.9023,248.342 53.5,248.5C 53.5,247.167 53.5,245.833 53.5,244.5C 54.5,244.5 55.5,244.5 56.5,244.5C 56.0019,233.834 60.0019,225.5 68.5,219.5 Z"/></g>
<g><path style="opacity:1" fill="#441b56" d="M 117.5,219.5 C 115.23,225.256 114.23,231.256 114.5,237.5C 112.958,236.699 111.292,236.366 109.5,236.5C 109.861,230.033 110.861,223.699 112.5,217.5C 112.435,217.062 112.601,216.728 113,216.5C 115.026,216.915 116.526,217.915 117.5,219.5 Z"/></g>
<g><path style="opacity:0.771" fill="#e51961" d="M 144.5,227.5 C 145.376,227.369 146.043,227.702 146.5,228.5C 145.82,229.86 145.153,231.193 144.5,232.5C 142.143,232.663 139.81,232.497 137.5,232C 140.585,231.47 142.918,229.97 144.5,227.5 Z"/></g>
<g><path style="opacity:0.882" fill="#ed1b63" d="M 79.5,218.5 C 80.4972,218.47 81.1639,218.97 81.5,220C 81.1098,222.459 79.7765,224.126 77.5,225C 78.3802,226.356 78.7135,227.856 78.5,229.5C 76.1432,229.337 73.8098,229.503 71.5,230C 70.6195,230.708 69.9528,231.542 69.5,232.5C 69.1667,233.167 68.8333,233.833 68.5,234.5C 68.5,234.833 68.5,235.167 68.5,235.5C 67.0549,237.571 66.0549,239.904 65.5,242.5C 65.1667,242.5 64.8333,242.5 64.5,242.5C 64.3367,240.143 64.5034,237.81 65,235.5C 67.0152,228.943 71.1818,224.443 77.5,222C 78.8228,221.184 79.4894,220.017 79.5,218.5 Z"/></g>
<g><path style="opacity:0.941" fill="#341944" d="M 144.5,227.5 C 142.918,229.97 140.585,231.47 137.5,232C 139.81,232.497 142.143,232.663 144.5,232.5C 145.906,232.973 146.573,233.973 146.5,235.5C 146.5,235.833 146.5,236.167 146.5,236.5C 142.202,235.8 137.869,235.467 133.5,235.5C 132.527,233.932 132.36,232.265 133,230.5C 134.376,229.295 135.542,227.962 136.5,226.5C 139.615,224.823 142.282,225.156 144.5,227.5 Z"/></g>
<g><path style="opacity:1" fill="#34204a" d="M 185.5,232.5 C 186.167,232.167 186.833,231.833 187.5,231.5C 187.833,231.5 188.167,231.5 188.5,231.5C 190.308,230.082 190.975,228.082 190.5,225.5C 192.286,223.078 193.952,223.078 195.5,225.5C 195.5,228.5 195.5,231.5 195.5,234.5C 190.5,234.5 185.5,234.5 180.5,234.5C 180.81,231.287 180.477,228.287 179.5,225.5C 179.369,224.624 179.702,223.957 180.5,223.5C 181.48,226.086 181.813,228.753 181.5,231.5C 182.959,231.433 184.292,231.766 185.5,232.5 Z"/></g>
<g><path style="opacity:0.827" fill="#f31864" d="M 185.5,224.5 C 186.612,226.599 187.279,228.933 187.5,231.5C 186.833,231.833 186.167,232.167 185.5,232.5C 185.5,229.833 185.5,227.167 185.5,224.5 Z"/></g>
<g><path style="opacity:0.566" fill="#15fefc" d="M 190.5,225.5 C 190.975,228.082 190.308,230.082 188.5,231.5C 188.025,228.918 188.692,226.918 190.5,225.5 Z"/></g>
<g><path style="opacity:1" fill="#3b2657" d="M 204.5,224.5 C 203.419,227.627 202.753,230.96 202.5,234.5C 201.167,234.5 199.833,234.5 198.5,234.5C 198.5,230.5 198.5,226.5 198.5,222.5C 200.83,221.72 202.83,222.387 204.5,224.5 Z"/></g>
<g><path style="opacity:1" fill="#371944" d="M 99.5,228.5 C 101.5,228.5 103.5,228.5 105.5,228.5C 105.141,230.371 104.141,231.871 102.5,233C 99.8524,235.05 96.8524,236.216 93.5,236.5C 93.8128,240.042 93.4794,243.375 92.5,246.5C 92.5,244.167 92.5,241.833 92.5,239.5C 91.1667,239.5 89.8333,239.5 88.5,239.5C 88.5,237.833 88.5,236.167 88.5,234.5C 88.5,233.5 88.5,232.5 88.5,231.5C 90.7354,231.795 92.7354,231.461 94.5,230.5C 94.8333,230.5 95.1667,230.5 95.5,230.5C 95.4346,230.938 95.6012,231.272 96,231.5C 97.0391,230.29 98.2058,229.29 99.5,228.5 Z"/></g>
<g><path style="opacity:0.817" fill="#30eaec" d="M 136.5,226.5 C 135.542,227.962 134.376,229.295 133,230.5C 132.36,232.265 132.527,233.932 133.5,235.5C 133.833,236.5 134.5,237.167 135.5,237.5C 135.5,237.833 135.5,238.167 135.5,238.5C 135.167,238.5 134.833,238.5 134.5,238.5C 134.167,238.5 133.833,238.5 133.5,238.5C 133.158,237.662 132.492,237.328 131.5,237.5C 130.322,234.523 130.322,231.523 131.5,228.5C 133.167,227.833 134.833,227.167 136.5,226.5 Z"/></g>
<g><path style="opacity:0.694" fill="#1aebeb" d="M 167.5,218.5 C 164.785,221.214 162.451,224.214 160.5,227.5C 157.461,231.255 155.794,235.588 155.5,240.5C 155.018,243.831 156.018,246.497 158.5,248.5C 158.833,249.167 159.167,249.833 159.5,250.5C 157.716,250.107 156.05,249.441 154.5,248.5C 152.653,245.406 152.153,242.072 153,238.5C 154.407,233.603 156.573,229.103 159.5,225C 158.552,224.517 157.552,224.351 156.5,224.5C 156.5,223.167 156.5,221.833 156.5,220.5C 160.444,220.887 164.111,220.22 167.5,218.5 Z"/></g>
<g><path style="opacity:1" fill="#221b2c" d="M 180.5,234.5 C 185.5,234.5 190.5,234.5 195.5,234.5C 195.665,237.85 195.498,241.183 195,244.5C 194.8,246.32 193.966,247.653 192.5,248.5C 191.778,248.082 191.278,247.416 191,246.5C 190.667,243.5 190.333,240.5 190,237.5C 189.617,238.056 189.117,238.389 188.5,238.5C 187.817,236.824 186.483,236.157 184.5,236.5C 184.002,239.487 183.502,242.487 183,245.5C 182.578,247.426 181.411,248.426 179.5,248.5C 178.851,243.949 179.184,239.283 180.5,234.5 Z"/></g>
<g><path style="opacity:1" fill="#421c45" d="M 212.5,225.5 C 212.178,231.358 212.511,237.025 213.5,242.5C 213.44,243.043 213.107,243.376 212.5,243.5C 211.52,240.914 211.187,238.247 211.5,235.5C 210.167,235.5 208.833,235.5 207.5,235.5C 207.5,231.833 207.5,228.167 207.5,224.5C 209.586,222.977 211.252,223.31 212.5,225.5 Z"/></g>
<g><path style="opacity:0.916" fill="#16f8f6" d="M 178.5,225.5 C 178.833,225.5 179.167,225.5 179.5,225.5C 180.477,228.287 180.81,231.287 180.5,234.5C 179.184,239.283 178.851,243.949 179.5,248.5C 179.5,248.833 179.5,249.167 179.5,249.5C 177.821,249.715 176.821,249.048 176.5,247.5C 176.5,246.5 176.5,245.5 176.5,244.5C 176.5,243.833 176.5,243.167 176.5,242.5C 177.341,240.621 177.675,238.621 177.5,236.5C 176.5,236.5 175.5,236.5 174.5,236.5C 174.5,235.167 174.5,233.833 174.5,232.5C 175.833,232.5 177.167,232.5 178.5,232.5C 178.5,230.167 178.5,227.833 178.5,225.5 Z"/></g>
<g><path style="opacity:0.758" fill="#21f0ef" d="M 218.5,225.5 C 218.517,227.565 218.85,229.565 219.5,231.5C 220.161,234.787 220.661,238.12 221,241.5C 221.374,243.491 222.207,245.158 223.5,246.5C 223.5,247.167 223.5,247.833 223.5,248.5C 221.821,248.715 220.821,248.048 220.5,246.5C 220.443,245.391 220.11,244.391 219.5,243.5C 219.672,242.508 219.338,241.842 218.5,241.5C 218.294,238.549 217.294,235.883 215.5,233.5C 216.064,231.181 216.564,228.847 217,226.5C 217.383,225.944 217.883,225.611 218.5,225.5 Z"/></g>
<g><path style="opacity:1" fill="#41294d" d="M 80.5,230.5 C 80.8417,231.338 81.5084,231.672 82.5,231.5C 83.1667,232.5 83.8333,233.5 84.5,234.5C 84.7845,236.415 84.4511,238.081 83.5,239.5C 83.2089,238.351 82.3756,237.684 81,237.5C 78.7298,238.86 76.2298,239.527 73.5,239.5C 72.8333,239.5 72.5,239.167 72.5,238.5C 71.6586,236.621 71.3253,234.621 71.5,232.5C 74.3112,231.525 77.3112,230.858 80.5,230.5 Z"/></g>
<g><path style="opacity:0.996" fill="#ef1d64" d="M 173.5,224.5 C 169.616,227.219 166.616,230.719 164.5,235C 165.793,235.49 167.127,235.657 168.5,235.5C 168.5,236.833 168.5,238.167 168.5,239.5C 166.5,239.5 164.5,239.5 162.5,239.5C 162.5,240.833 162.5,242.167 162.5,243.5C 161.833,243.5 161.167,243.5 160.5,243.5C 160.351,240.393 160.851,237.393 162,234.5C 163.356,231.671 164.856,229.004 166.5,226.5C 168.148,225.19 169.814,223.857 171.5,222.5C 172.522,222.855 173.189,223.522 173.5,224.5 Z"/></g>
<g><path style="opacity:0.945" fill="#46e6e7" d="M 198.5,222.5 C 198.5,226.5 198.5,230.5 198.5,234.5C 198.334,238.514 198.501,242.514 199,246.5C 199.278,247.416 199.778,248.082 200.5,248.5C 200.5,248.833 200.5,249.167 200.5,249.5C 199.041,249.567 197.708,249.234 196.5,248.5C 196.5,240.833 196.5,233.167 196.5,225.5C 196.427,223.973 197.094,222.973 198.5,222.5 Z"/></g>
<g><path style="opacity:0.83" fill="#f41a61" d="M 212.5,225.5 C 213.893,227.511 214.56,229.845 214.5,232.5C 214.034,235.492 213.701,238.492 213.5,241.5C 213.5,241.833 213.5,242.167 213.5,242.5C 212.511,237.025 212.178,231.358 212.5,225.5 Z"/></g>
<g><path style="opacity:0.596" fill="#11fdfa" d="M 50.5,237.5 C 51.8333,237.5 53.1667,237.5 54.5,237.5C 54.5,238.833 54.5,240.167 54.5,241.5C 53.1667,241.5 51.8333,241.5 50.5,241.5C 50.5,240.167 50.5,238.833 50.5,237.5 Z"/></g>
<g><path style="opacity:0.369" fill="#15f8f7" d="M 69.5,232.5 C 70.1667,232.5 70.8333,232.5 71.5,232.5C 71.3253,234.621 71.6586,236.621 72.5,238.5C 70.3812,238.532 69.0478,237.532 68.5,235.5C 69.8333,235.167 69.8333,234.833 68.5,234.5C 68.8333,233.833 69.1667,233.167 69.5,232.5 Z"/></g>
<g><path style="opacity:0.949" fill="#dd93ad" d="M 135.5,238.5 C 135.5,238.167 135.5,237.833 135.5,237.5C 137.527,237.338 139.527,237.505 141.5,238C 140.095,239.269 138.429,239.769 136.5,239.5C 136.5,238.833 136.167,238.5 135.5,238.5 Z"/></g>
<g><path style="opacity:1" fill="#281934" d="M 166.5,226.5 C 164.856,229.004 163.356,231.671 162,234.5C 160.851,237.393 160.351,240.393 160.5,243.5C 159.596,242.791 159.263,241.791 159.5,240.5C 158.167,240.5 156.833,240.5 155.5,240.5C 155.794,235.588 157.461,231.255 160.5,227.5C 162.435,226.85 164.435,226.517 166.5,226.5 Z"/></g>
<g><path style="opacity:1" fill="#1b1622" d="M 125.5,222.5 C 125.5,225.167 125.5,227.833 125.5,230.5C 126.833,230.5 128.167,230.5 129.5,230.5C 129.666,234.514 129.499,238.514 129,242.5C 128.665,244.503 127.832,246.17 126.5,247.5C 125.521,246.235 124.521,244.901 123.5,243.5C 122.893,243.624 122.56,243.957 122.5,244.5C 120.412,245.939 118.079,246.606 115.5,246.5C 111.468,244.423 109.468,241.089 109.5,236.5C 111.292,236.366 112.958,236.699 114.5,237.5C 114.932,238.71 115.599,239.71 116.5,240.5C 116.833,240.5 117.167,240.5 117.5,240.5C 120.091,239.746 121.924,238.079 123,235.5C 123.966,231.06 124.799,226.727 125.5,222.5 Z"/></g>
<g><path style="opacity:0.687" fill="#1df9f7" d="M 192.5,248.5 C 192.5,248.833 192.5,249.167 192.5,249.5C 190.871,251.06 189.704,250.727 189,248.5C 188.502,245.183 188.335,241.85 188.5,238.5C 189.117,238.389 189.617,238.056 190,237.5C 190.333,240.5 190.667,243.5 191,246.5C 191.278,247.416 191.778,248.082 192.5,248.5 Z"/></g>
<g><path style="opacity:0.922" fill="#e52061" d="M 232.5,235.5 C 234.758,235.775 235.092,236.775 233.5,238.5C 231.556,239.801 229.556,240.801 227.5,241.5C 227.44,242.043 227.107,242.376 226.5,242.5C 225.571,241.311 225.238,239.978 225.5,238.5C 228.321,238.455 230.654,237.455 232.5,235.5 Z"/></g>
<g><path style="opacity:0.996" fill="#10fdfa" d="M 96.5,238.5 C 97.5,238.5 98.5,238.5 99.5,238.5C 100.434,239.568 100.768,240.901 100.5,242.5C 99.1667,242.5 97.8333,242.5 96.5,242.5C 96.5,241.167 96.5,239.833 96.5,238.5 Z"/></g>
<g><path style="opacity:0.948" fill="#1c1922" d="M 133.5,235.5 C 137.869,235.467 142.202,235.8 146.5,236.5C 146.528,238.582 145.861,240.416 144.5,242C 141.691,243.741 138.691,244.908 135.5,245.5C 133.615,243.947 132.615,241.947 132.5,239.5C 132.5,238.833 132.833,238.5 133.5,238.5C 133.833,238.5 134.167,238.5 134.5,238.5C 134.842,239.338 135.508,239.672 136.5,239.5C 138.429,239.769 140.095,239.269 141.5,238C 139.527,237.505 137.527,237.338 135.5,237.5C 134.5,237.167 133.833,236.5 133.5,235.5 Z"/></g>
<g><path style="opacity:0.984" fill="#18181f" d="M 59.5,235.5 C 59.5,236.833 59.5,238.167 59.5,239.5C 60.8333,239.5 62.1667,239.5 63.5,239.5C 63.2627,240.791 63.596,241.791 64.5,242.5C 64.8333,242.5 65.1667,242.5 65.5,242.5C 68.5418,242.267 71.2084,241.267 73.5,239.5C 76.2298,239.527 78.7298,238.86 81,237.5C 82.3756,237.684 83.2089,238.351 83.5,239.5C 79.7763,245.037 74.4429,248.037 67.5,248.5C 66.0755,248.377 64.7421,248.043 63.5,247.5C 59.1358,244.408 57.8024,240.408 59.5,235.5 Z"/></g>
<g><path style="opacity:0.971" fill="#151218" d="M 155.5,240.5 C 156.833,240.5 158.167,240.5 159.5,240.5C 159.263,241.791 159.596,242.791 160.5,243.5C 161.167,243.5 161.833,243.5 162.5,243.5C 166.794,243.423 170.961,242.756 175,241.5C 175.383,242.056 175.883,242.389 176.5,242.5C 176.5,243.167 176.5,243.833 176.5,244.5C 173.832,246.501 170.832,248.001 167.5,249C 164.445,249.634 161.445,249.468 158.5,248.5C 156.018,246.497 155.018,243.831 155.5,240.5 Z"/></g>
<g><path style="opacity:1" fill="#171a22" d="M 88.5,234.5 C 88.5,236.167 88.5,237.833 88.5,239.5C 89.8333,239.5 91.1667,239.5 92.5,239.5C 92.5,241.833 92.5,244.167 92.5,246.5C 92.5323,248.619 91.5323,249.952 89.5,250.5C 87.3219,245.2 86.9885,239.867 88.5,234.5 Z"/></g>
<g><path style="opacity:0.752" fill="#2febec" d="M 131.5,239.5 C 131.833,239.5 132.167,239.5 132.5,239.5C 132.615,241.947 133.615,243.947 135.5,245.5C 135.5,245.833 135.5,246.167 135.5,246.5C 133.847,246.34 132.514,245.674 131.5,244.5C 130.167,242.833 130.167,241.167 131.5,239.5 Z"/></g>
<g><path style="opacity:0.966" fill="#15121b" d="M 207.5,235.5 C 208.833,235.5 210.167,235.5 211.5,235.5C 211.187,238.247 211.52,240.914 212.5,243.5C 213.107,243.376 213.44,243.043 213.5,242.5C 213.5,242.167 213.5,241.833 213.5,241.5C 215.167,241.5 216.833,241.5 218.5,241.5C 219.338,241.842 219.672,242.508 219.5,243.5C 216.446,245.694 213.112,247.361 209.5,248.5C 207.722,244.435 207.055,240.101 207.5,235.5 Z"/></g>
<g><path style="opacity:0.962" fill="#1c1522" d="M 219.5,231.5 C 221.554,231.365 223.221,232.032 224.5,233.5C 225.167,234.833 225.833,234.833 226.5,233.5C 229.082,233.025 231.082,233.692 232.5,235.5C 230.654,237.455 228.321,238.455 225.5,238.5C 225.238,239.978 225.571,241.311 226.5,242.5C 227.107,242.376 227.44,242.043 227.5,241.5C 229.857,241.337 232.19,241.503 234.5,242C 235.056,242.383 235.389,242.883 235.5,243.5C 231.832,245.721 227.832,246.721 223.5,246.5C 222.207,245.158 221.374,243.491 221,241.5C 220.661,238.12 220.161,234.787 219.5,231.5 Z"/></g>
<g><path style="opacity:1" fill="#17131e" d="M 198.5,234.5 C 199.833,234.5 201.167,234.5 202.5,234.5C 202.666,238.846 202.499,243.179 202,247.5C 201.617,248.056 201.117,248.389 200.5,248.5C 199.778,248.082 199.278,247.416 199,246.5C 198.501,242.514 198.334,238.514 198.5,234.5 Z"/></g>
<g><path style="opacity:0.492" fill="#e11a5f" d="M 204.5,224.5 C 205.167,224.5 205.5,224.833 205.5,225.5C 205.5,228.167 205.5,230.833 205.5,233.5C 204.167,234.5 204.167,235.5 205.5,236.5C 205.037,239.482 204.704,242.482 204.5,245.5C 205.161,249.517 203.828,250.851 200.5,249.5C 200.5,249.167 200.5,248.833 200.5,248.5C 201.117,248.389 201.617,248.056 202,247.5C 202.499,243.179 202.666,238.846 202.5,234.5C 202.753,230.96 203.419,227.627 204.5,224.5 Z"/></g>
<g><path style="opacity:0.759" fill="#ef1d66" d="M 108.5,225.5 C 108.483,227.565 108.15,229.565 107.5,231.5C 106.833,231.5 106.5,231.833 106.5,232.5C 106.5,232.833 106.5,233.167 106.5,233.5C 104.305,235.424 101.972,237.091 99.5,238.5C 98.5,238.5 97.5,238.5 96.5,238.5C 95.7074,242.702 94.8741,247.035 94,251.5C 92.5098,252.728 91.0098,252.728 89.5,251.5C 89.5,251.167 89.5,250.833 89.5,250.5C 91.5323,249.952 92.5323,248.619 92.5,246.5C 93.4794,243.375 93.8128,240.042 93.5,236.5C 96.8524,236.216 99.8524,235.05 102.5,233C 104.141,231.871 105.141,230.371 105.5,228.5C 106.728,227.694 107.728,226.694 108.5,225.5 Z"/></g>
<g><path style="opacity:0.976" fill="#e81b63" d="M 146.5,235.5 C 147.947,236.134 148.613,237.301 148.5,239C 147.841,241.462 147.507,243.962 147.5,246.5C 143.413,247.201 139.413,247.201 135.5,246.5C 135.5,246.167 135.5,245.833 135.5,245.5C 138.691,244.908 141.691,243.741 144.5,242C 145.861,240.416 146.528,238.582 146.5,236.5C 146.5,236.167 146.5,235.833 146.5,235.5 Z"/></g>
<g><path style="opacity:0.806" fill="#ed2668" d="M 235.5,243.5 C 236.097,243.735 236.43,244.235 236.5,245C 235.556,246.477 234.223,247.477 232.5,248C 229.964,248.339 227.464,248.839 225,249.5C 224.235,249.43 223.735,249.097 223.5,248.5C 223.5,247.833 223.5,247.167 223.5,246.5C 227.832,246.721 231.832,245.721 235.5,243.5 Z"/></g>
<g><path style="opacity:0.251" fill="#3deff0" d="M 112.5,217.5 C 110.861,223.699 109.861,230.033 109.5,236.5C 109.468,241.089 111.468,244.423 115.5,246.5C 115.5,246.833 115.5,247.167 115.5,247.5C 111.881,246.756 108.215,246.423 104.5,246.5C 104.5,244.833 104.5,243.167 104.5,241.5C 105.5,241.5 106.5,241.5 107.5,241.5C 106.908,238.873 106.575,236.206 106.5,233.5C 106.5,233.167 106.5,232.833 106.5,232.5C 107.167,232.5 107.5,232.167 107.5,231.5C 108.15,229.565 108.483,227.565 108.5,225.5C 109.461,223.735 109.795,221.735 109.5,219.5C 110.222,218.449 111.222,217.782 112.5,217.5 Z"/></g>
<g><path style="opacity:0.914" fill="#eb2d67" d="M 122.5,244.5 C 123.11,245.391 123.443,246.391 123.5,247.5C 120.728,248.767 118.061,248.767 115.5,247.5C 115.5,247.167 115.5,246.833 115.5,246.5C 118.079,246.606 120.412,245.939 122.5,244.5 Z"/></g>
<g><path style="opacity:0.78" fill="#7cecec" d="M 126.5,247.5 C 126.5,247.833 126.5,248.167 126.5,248.5C 125.209,248.737 124.209,248.404 123.5,247.5C 123.443,246.391 123.11,245.391 122.5,244.5C 122.56,243.957 122.893,243.624 123.5,243.5C 124.521,244.901 125.521,246.235 126.5,247.5 Z"/></g>
<g><path style="opacity:0.731" fill="#e51f60" d="M 188.5,238.5 C 187.883,238.611 187.383,238.944 187,239.5C 186.125,242.883 185.125,246.216 184,249.5C 182.53,251.877 181.03,251.877 179.5,249.5C 179.5,249.167 179.5,248.833 179.5,248.5C 181.411,248.426 182.578,247.426 183,245.5C 183.502,242.487 184.002,239.487 184.5,236.5C 186.483,236.157 187.817,236.824 188.5,238.5 Z"/></g>
<g><path style="opacity:0.873" fill="#e8306d" d="M 195.5,225.5 C 195.833,225.5 196.167,225.5 196.5,225.5C 196.5,233.167 196.5,240.833 196.5,248.5C 195.59,251.814 194.257,252.148 192.5,249.5C 192.5,249.167 192.5,248.833 192.5,248.5C 193.966,247.653 194.8,246.32 195,244.5C 195.498,241.183 195.665,237.85 195.5,234.5C 195.5,231.5 195.5,228.5 195.5,225.5 Z"/></g>
<g><path style="opacity:0.751" fill="#ee2c67" d="M 84.5,234.5 C 84.8333,234.5 85.1667,234.5 85.5,234.5C 85.5,237.167 85.5,239.833 85.5,242.5C 79.6186,249.238 72.2853,251.571 63.5,249.5C 63.5,248.833 63.5,248.167 63.5,247.5C 64.7421,248.043 66.0755,248.377 67.5,248.5C 74.4429,248.037 79.7763,245.037 83.5,239.5C 84.4511,238.081 84.7845,236.415 84.5,234.5 Z"/></g>
<g><path style="opacity:0.922" fill="#e92065" d="M 219.5,243.5 C 220.11,244.391 220.443,245.391 220.5,246.5C 217.233,249.372 213.567,250.372 209.5,249.5C 209.5,249.167 209.5,248.833 209.5,248.5C 213.112,247.361 216.446,245.694 219.5,243.5 Z"/></g>
<g><path style="opacity:0.831" fill="#0efdfa" d="M 154.5,248.5 C 154.5,249.833 154.5,251.167 154.5,252.5C 153.167,252.5 151.833,252.5 150.5,252.5C 150.5,251.167 150.5,249.833 150.5,248.5C 151.833,248.5 153.167,248.5 154.5,248.5 Z"/></g>
<g><path style="opacity:0.657" fill="#ed4371" d="M 176.5,244.5 C 176.5,245.5 176.5,246.5 176.5,247.5C 171.381,251.447 165.714,252.447 159.5,250.5C 159.167,249.833 158.833,249.167 158.5,248.5C 161.445,249.468 164.445,249.634 167.5,249C 170.832,248.001 173.832,246.501 176.5,244.5 Z"/></g>
</svg>
